%TF.GenerationSoftware,KiCad,Pcbnew,10.0.4*%
%TF.CreationDate,2026-07-11T21:59:25+10:00*%
%TF.ProjectId,hotglue-beetle-screw-switch,686f7467-6c75-4652-9d62-6565746c652d,rev?*%
%TF.SameCoordinates,Original*%
%TF.FileFunction,Soldermask,Bot*%
%TF.FilePolarity,Negative*%
%FSLAX46Y46*%
G04 Gerber Fmt 4.6, Leading zero omitted, Abs format (unit mm)*
G04 Created by KiCad (PCBNEW 10.0.4) date 2026-07-11 21:59:25*
%MOMM*%
%LPD*%
G01*
G04 APERTURE LIST*
G04 Aperture macros list*
%AMRoundRect*
0 Rectangle with rounded corners*
0 $1 Rounding radius*
0 $2 $3 $4 $5 $6 $7 $8 $9 X,Y pos of 4 corners*
0 Add a 4 corners polygon primitive as box body*
4,1,4,$2,$3,$4,$5,$6,$7,$8,$9,$2,$3,0*
0 Add four circle primitives for the rounded corners*
1,1,$1+$1,$2,$3*
1,1,$1+$1,$4,$5*
1,1,$1+$1,$6,$7*
1,1,$1+$1,$8,$9*
0 Add four rect primitives between the rounded corners*
20,1,$1+$1,$2,$3,$4,$5,0*
20,1,$1+$1,$4,$5,$6,$7,0*
20,1,$1+$1,$6,$7,$8,$9,0*
20,1,$1+$1,$8,$9,$2,$3,0*%
%AMFreePoly0*
4,1,120,-2.407097,3.659953,-2.050973,3.589116,-1.703508,3.483713,-1.368046,3.344760,-1.047820,3.173596,-0.745913,2.971868,-0.465232,2.741519,-0.208481,2.484768,0.021868,2.204087,0.223596,1.902180,0.394760,1.581954,0.533713,1.246492,0.639116,0.899027,0.709953,0.542903,0.745543,0.181550,0.745543,0.077766,0.746389,0.073513,0.746389,-0.073513,0.745543,-0.077766,0.745543,-0.181550,
0.709953,-0.542903,0.639116,-0.899027,0.533713,-1.246492,0.394760,-1.581954,0.223596,-1.902180,0.021868,-2.204087,-0.208481,-2.484768,-0.465232,-2.741519,-0.745913,-2.971868,-1.047820,-3.173596,-1.368046,-3.344760,-1.703508,-3.483713,-2.050973,-3.589116,-2.407097,-3.659953,-2.768450,-3.695543,-3.131550,-3.695543,-3.492903,-3.659953,-3.849027,-3.589116,-4.196492,-3.483713,-4.531954,-3.344760,
-4.852180,-3.173596,-5.154087,-2.971868,-5.434768,-2.741519,-5.691519,-2.484768,-5.921868,-2.204087,-6.123596,-1.902180,-6.294760,-1.581954,-6.433713,-1.246492,-6.539116,-0.899027,-6.609953,-0.542903,-6.645543,-0.181550,-6.645543,0.144196,-5.150000,0.144196,-5.150000,-0.144196,-5.112357,-0.430120,-5.037716,-0.708684,-4.927353,-0.975123,-4.783158,-1.224877,-4.607596,-1.453673,-4.403673,-1.657596,
-4.174877,-1.833158,-3.925123,-1.977353,-3.658684,-2.087716,-3.380120,-2.162357,-3.094196,-2.200000,-2.805804,-2.200000,-2.519880,-2.162357,-2.241316,-2.087716,-1.974877,-1.977353,-1.725123,-1.833158,-1.496327,-1.657596,-1.292404,-1.453673,-1.116842,-1.224877,-0.972647,-0.975123,-0.862284,-0.708684,-0.787643,-0.430120,-0.750000,-0.144196,-0.750000,0.144196,-0.787643,0.430120,-0.862284,0.708684,
-0.972647,0.975123,-1.116842,1.224877,-1.292404,1.453673,-1.496327,1.657596,-1.725123,1.833158,-1.974877,1.977353,-2.241316,2.087716,-2.519880,2.162357,-2.805804,2.200000,-3.094196,2.200000,-3.380120,2.162357,-3.658684,2.087716,-3.925123,1.977353,-4.174877,1.833158,-4.403673,1.657596,-4.607596,1.453673,-4.783158,1.224877,-4.927353,0.975123,-5.037716,0.708684,-5.112357,0.430120,
-5.150000,0.144196,-6.645543,0.144196,-6.645543,0.181550,-6.609953,0.542903,-6.539116,0.899027,-6.433713,1.246492,-6.294760,1.581954,-6.123596,1.902180,-5.921868,2.204087,-5.691519,2.484768,-5.434768,2.741519,-5.154087,2.971868,-4.852180,3.173596,-4.531954,3.344760,-4.196492,3.483713,-3.849027,3.589116,-3.492903,3.659953,-3.131550,3.695543,-2.768450,3.695543,-2.407097,3.659953,
-2.407097,3.659953,$1*%
G04 Aperture macros list end*
%ADD10C,0.200000*%
%ADD11C,4.400000*%
%ADD12RoundRect,0.760000X-1.140000X1.140000X-1.140000X-1.140000X1.140000X-1.140000X1.140000X1.140000X0*%
%ADD13C,4.000000*%
%ADD14C,3.800000*%
%ADD15RoundRect,0.237500X-0.250000X-0.237500X0.250000X-0.237500X0.250000X0.237500X-0.250000X0.237500X0*%
%ADD16RoundRect,0.237500X0.287500X0.237500X-0.287500X0.237500X-0.287500X-0.237500X0.287500X-0.237500X0*%
%ADD17FreePoly0,180.000000*%
G04 APERTURE END LIST*
D10*
X117023808Y-95452219D02*
X116690475Y-96452219D01*
X116690475Y-96452219D02*
X116357142Y-95452219D01*
X115499999Y-96452219D02*
X116071427Y-96452219D01*
X115785713Y-96452219D02*
X115785713Y-95452219D01*
X115785713Y-95452219D02*
X115880951Y-95595076D01*
X115880951Y-95595076D02*
X115976189Y-95690314D01*
X115976189Y-95690314D02*
X116071427Y-95737933D01*
X115071427Y-96356980D02*
X115023808Y-96404600D01*
X115023808Y-96404600D02*
X115071427Y-96452219D01*
X115071427Y-96452219D02*
X115119046Y-96404600D01*
X115119046Y-96404600D02*
X115071427Y-96356980D01*
X115071427Y-96356980D02*
X115071427Y-96452219D01*
X114404761Y-95452219D02*
X114309523Y-95452219D01*
X114309523Y-95452219D02*
X114214285Y-95499838D01*
X114214285Y-95499838D02*
X114166666Y-95547457D01*
X114166666Y-95547457D02*
X114119047Y-95642695D01*
X114119047Y-95642695D02*
X114071428Y-95833171D01*
X114071428Y-95833171D02*
X114071428Y-96071266D01*
X114071428Y-96071266D02*
X114119047Y-96261742D01*
X114119047Y-96261742D02*
X114166666Y-96356980D01*
X114166666Y-96356980D02*
X114214285Y-96404600D01*
X114214285Y-96404600D02*
X114309523Y-96452219D01*
X114309523Y-96452219D02*
X114404761Y-96452219D01*
X114404761Y-96452219D02*
X114499999Y-96404600D01*
X114499999Y-96404600D02*
X114547618Y-96356980D01*
X114547618Y-96356980D02*
X114595237Y-96261742D01*
X114595237Y-96261742D02*
X114642856Y-96071266D01*
X114642856Y-96071266D02*
X114642856Y-95833171D01*
X114642856Y-95833171D02*
X114595237Y-95642695D01*
X114595237Y-95642695D02*
X114547618Y-95547457D01*
X114547618Y-95547457D02*
X114499999Y-95499838D01*
X114499999Y-95499838D02*
X114404761Y-95452219D01*
D11*
%TO.C,H3*%
X122000000Y-96000000D03*
%TD*%
D12*
%TO.C,J2*%
X110000000Y-83500000D03*
D13*
X110000000Y-88500000D03*
%TD*%
D12*
%TO.C,J1*%
X103000000Y-83500000D03*
D14*
X103000000Y-88500000D03*
%TD*%
D12*
%TO.C,J3*%
X117000000Y-83500000D03*
D13*
X117000000Y-88500000D03*
%TD*%
D11*
%TO.C,H2*%
X106950000Y-96000000D03*
%TD*%
D12*
%TO.C,J4*%
X124000000Y-83500000D03*
D13*
X124000000Y-88500000D03*
%TD*%
D15*
%TO.C,R1*%
X116087500Y-99000000D03*
X117912500Y-99000000D03*
%TD*%
%TO.C,R2*%
X116175000Y-93000000D03*
X118000000Y-93000000D03*
%TD*%
D16*
%TO.C,D2*%
X113875000Y-93000000D03*
X112125000Y-93000000D03*
%TD*%
D17*
%TO.C,H1*%
X104000000Y-96000000D03*
%TD*%
D16*
%TO.C,D1*%
X113875000Y-99000000D03*
X112125000Y-99000000D03*
%TD*%
G36*
X103350688Y-86519432D02*
G01*
X103364326Y-86520948D01*
X103703946Y-86577874D01*
X103717332Y-86580888D01*
X104048578Y-86674989D01*
X104061549Y-86679463D01*
X104380369Y-86809584D01*
X104392768Y-86815464D01*
X104695268Y-86980021D01*
X104706940Y-86987235D01*
X104989395Y-87184200D01*
X105000199Y-87192659D01*
X105259169Y-87419631D01*
X105268972Y-87429233D01*
X105501280Y-87683431D01*
X105509962Y-87694056D01*
X105712758Y-87972359D01*
X105720213Y-87983879D01*
X105892727Y-88285878D01*
X105895965Y-88291930D01*
X107470850Y-91441700D01*
X107473301Y-91446900D01*
X107657643Y-91862725D01*
X107661809Y-91873437D01*
X107805935Y-92301809D01*
X107809092Y-92312862D01*
X107912938Y-92752759D01*
X107915057Y-92764056D01*
X107977719Y-93211651D01*
X107978784Y-93223096D01*
X107999867Y-93677473D01*
X108000000Y-93683220D01*
X108000000Y-97495572D01*
X107999684Y-97504418D01*
X107980275Y-97775785D01*
X107977757Y-97793297D01*
X107920872Y-98054794D01*
X107915888Y-98071770D01*
X107822361Y-98322524D01*
X107815011Y-98338617D01*
X107686758Y-98573496D01*
X107677193Y-98588380D01*
X107516811Y-98802624D01*
X107505225Y-98815994D01*
X107315994Y-99005225D01*
X107302624Y-99016811D01*
X107088380Y-99177193D01*
X107073496Y-99186758D01*
X106838617Y-99315011D01*
X106822524Y-99322361D01*
X106571770Y-99415888D01*
X106554794Y-99420872D01*
X106293297Y-99477757D01*
X106275785Y-99480275D01*
X106008288Y-99499407D01*
X105991703Y-99499481D01*
X105662050Y-99478867D01*
X105646692Y-99476939D01*
X105321624Y-99415312D01*
X105306627Y-99411486D01*
X104991762Y-99309841D01*
X104977357Y-99304175D01*
X104677618Y-99164099D01*
X104664033Y-99156684D01*
X104384080Y-98980359D01*
X104371523Y-98971309D01*
X104115710Y-98761475D01*
X104104379Y-98750931D01*
X103876706Y-98510869D01*
X103866776Y-98498995D01*
X103670778Y-98232431D01*
X103662406Y-98219413D01*
X103501151Y-97930522D01*
X103494465Y-97916563D01*
X103368996Y-97606226D01*
X103366319Y-97598960D01*
X101257370Y-91272109D01*
X101255889Y-91267348D01*
X101146261Y-90888292D01*
X101143878Y-90878609D01*
X101065558Y-90494408D01*
X101063960Y-90484565D01*
X101016767Y-90095329D01*
X101015966Y-90085390D01*
X101000100Y-89691097D01*
X101000000Y-89686111D01*
X101000000Y-88504427D01*
X101000316Y-88495581D01*
X101019724Y-88224214D01*
X101022242Y-88206702D01*
X101079127Y-87945205D01*
X101084111Y-87928229D01*
X101177638Y-87677475D01*
X101184988Y-87661382D01*
X101313241Y-87426503D01*
X101322806Y-87411619D01*
X101483188Y-87197375D01*
X101494774Y-87184005D01*
X101684005Y-86994774D01*
X101697375Y-86983188D01*
X101911619Y-86822806D01*
X101926503Y-86813241D01*
X102161382Y-86684988D01*
X102177475Y-86677638D01*
X102428229Y-86584111D01*
X102445205Y-86579127D01*
X102706702Y-86522242D01*
X102724214Y-86519724D01*
X102992150Y-86500561D01*
X103007857Y-86500435D01*
X103350688Y-86519432D01*
G37*
G36*
X123504418Y-81500316D02*
G01*
X123775785Y-81519724D01*
X123793297Y-81522242D01*
X124054794Y-81579127D01*
X124071770Y-81584111D01*
X124322524Y-81677638D01*
X124338617Y-81684988D01*
X124573496Y-81813241D01*
X124588380Y-81822806D01*
X124802624Y-81983188D01*
X124815994Y-81994774D01*
X125005225Y-82184005D01*
X125016811Y-82197375D01*
X125177193Y-82411619D01*
X125186758Y-82426503D01*
X125315011Y-82661382D01*
X125322361Y-82677475D01*
X125415888Y-82928229D01*
X125420872Y-82945205D01*
X125477757Y-83206702D01*
X125480275Y-83224214D01*
X125499367Y-83491154D01*
X125499367Y-83508846D01*
X125480275Y-83775785D01*
X125477757Y-83793297D01*
X125420872Y-84054794D01*
X125415888Y-84071770D01*
X125322361Y-84322524D01*
X125315011Y-84338617D01*
X125186758Y-84573496D01*
X125177193Y-84588380D01*
X125016811Y-84802624D01*
X125005225Y-84815994D01*
X124815994Y-85005225D01*
X124802624Y-85016811D01*
X124588380Y-85177193D01*
X124573496Y-85186758D01*
X124338617Y-85315011D01*
X124322524Y-85322361D01*
X124071770Y-85415888D01*
X124054794Y-85420872D01*
X123793297Y-85477757D01*
X123775785Y-85480275D01*
X123504418Y-85499684D01*
X123495572Y-85500000D01*
X103504428Y-85500000D01*
X103495582Y-85499684D01*
X103224214Y-85480275D01*
X103206702Y-85477757D01*
X102945205Y-85420872D01*
X102928229Y-85415888D01*
X102677475Y-85322361D01*
X102661382Y-85315011D01*
X102426503Y-85186758D01*
X102411619Y-85177193D01*
X102197375Y-85016811D01*
X102184005Y-85005225D01*
X101994774Y-84815994D01*
X101983188Y-84802624D01*
X101822806Y-84588380D01*
X101813241Y-84573496D01*
X101684988Y-84338617D01*
X101677638Y-84322524D01*
X101584111Y-84071770D01*
X101579127Y-84054794D01*
X101522242Y-83793297D01*
X101519724Y-83775785D01*
X101500632Y-83508846D01*
X101500632Y-83491154D01*
X101519724Y-83224214D01*
X101522242Y-83206702D01*
X101579127Y-82945205D01*
X101584111Y-82928229D01*
X101677638Y-82677475D01*
X101684988Y-82661382D01*
X101813241Y-82426503D01*
X101822806Y-82411619D01*
X101983188Y-82197375D01*
X101994774Y-82184005D01*
X102184005Y-81994774D01*
X102197375Y-81983188D01*
X102411619Y-81822806D01*
X102426503Y-81813241D01*
X102661382Y-81684988D01*
X102677475Y-81677638D01*
X102928229Y-81584111D01*
X102945205Y-81579127D01*
X103206702Y-81522242D01*
X103224214Y-81519724D01*
X103495582Y-81500316D01*
X103504428Y-81500000D01*
X123495572Y-81500000D01*
X123504418Y-81500316D01*
G37*
G36*
X123504418Y-86500316D02*
G01*
X123775785Y-86519724D01*
X123793297Y-86522242D01*
X124054794Y-86579127D01*
X124071770Y-86584111D01*
X124322524Y-86677638D01*
X124338617Y-86684988D01*
X124573496Y-86813241D01*
X124588380Y-86822806D01*
X124802624Y-86983188D01*
X124815994Y-86994774D01*
X125005225Y-87184005D01*
X125016811Y-87197375D01*
X125177193Y-87411619D01*
X125186758Y-87426503D01*
X125315011Y-87661382D01*
X125322361Y-87677475D01*
X125415888Y-87928229D01*
X125420872Y-87945205D01*
X125477757Y-88206702D01*
X125480275Y-88224214D01*
X125499367Y-88491154D01*
X125499367Y-88508846D01*
X125480275Y-88775785D01*
X125477757Y-88793297D01*
X125420872Y-89054794D01*
X125415888Y-89071770D01*
X125322361Y-89322524D01*
X125315011Y-89338617D01*
X125186758Y-89573496D01*
X125177193Y-89588380D01*
X125016811Y-89802624D01*
X125005225Y-89815994D01*
X124815994Y-90005225D01*
X124802624Y-90016811D01*
X124588380Y-90177193D01*
X124573496Y-90186758D01*
X124338617Y-90315011D01*
X124322524Y-90322361D01*
X124071770Y-90415888D01*
X124054794Y-90420872D01*
X123793297Y-90477757D01*
X123775785Y-90480275D01*
X123504418Y-90499684D01*
X123495572Y-90500000D01*
X110504428Y-90500000D01*
X110495582Y-90499684D01*
X110224214Y-90480275D01*
X110206702Y-90477757D01*
X109945205Y-90420872D01*
X109928229Y-90415888D01*
X109677475Y-90322361D01*
X109661382Y-90315011D01*
X109426503Y-90186758D01*
X109411619Y-90177193D01*
X109197375Y-90016811D01*
X109184005Y-90005225D01*
X108994774Y-89815994D01*
X108983188Y-89802624D01*
X108822806Y-89588380D01*
X108813241Y-89573496D01*
X108684988Y-89338617D01*
X108677638Y-89322524D01*
X108584111Y-89071770D01*
X108579127Y-89054794D01*
X108522242Y-88793297D01*
X108519724Y-88775785D01*
X108500632Y-88508846D01*
X108500632Y-88491154D01*
X108519724Y-88224214D01*
X108522242Y-88206702D01*
X108579127Y-87945205D01*
X108584111Y-87928229D01*
X108677638Y-87677475D01*
X108684988Y-87661382D01*
X108813241Y-87426503D01*
X108822806Y-87411619D01*
X108983188Y-87197375D01*
X108994774Y-87184005D01*
X109184005Y-86994774D01*
X109197375Y-86983188D01*
X109411619Y-86822806D01*
X109426503Y-86813241D01*
X109661382Y-86684988D01*
X109677475Y-86677638D01*
X109928229Y-86584111D01*
X109945205Y-86579127D01*
X110206702Y-86522242D01*
X110224214Y-86519724D01*
X110495582Y-86500316D01*
X110504428Y-86500000D01*
X123495572Y-86500000D01*
X123504418Y-86500316D01*
G37*
M02*
