%TF.GenerationSoftware,KiCad,Pcbnew,10.0.4*%
%TF.CreationDate,2026-07-12T12:48:28+10:00*%
%TF.ProjectId,hotglue-beetle-screw-switch,686f7467-6c75-4652-9d62-6565746c652d,rev?*%
%TF.SameCoordinates,Original*%
%TF.FileFunction,Legend,Bot*%
%TF.FilePolarity,Positive*%
%FSLAX46Y46*%
G04 Gerber Fmt 4.6, Leading zero omitted, Abs format (unit mm)*
G04 Created by KiCad (PCBNEW 10.0.4) date 2026-07-12 12:48:28*
%MOMM*%
%LPD*%
G01*
G04 APERTURE LIST*
%ADD10C,0.200000*%
%ADD11C,0.120000*%
G04 APERTURE END LIST*
D10*
X106880951Y-76071266D02*
X106119047Y-76071266D01*
X106880951Y-83071266D02*
X106119047Y-83071266D01*
X106499999Y-83452219D02*
X106499999Y-82690314D01*
X113880951Y-76071266D02*
X113119047Y-76071266D01*
X113880951Y-86571266D02*
X113119047Y-86571266D01*
X113499999Y-86952219D02*
X113499999Y-86190314D01*
X120880951Y-76071266D02*
X120119047Y-76071266D01*
X120880951Y-86571266D02*
X120119047Y-86571266D01*
X120499999Y-86952219D02*
X120499999Y-86190314D01*
%TO.C,R1*%
D11*
X116745276Y-94477500D02*
X117254724Y-94477500D01*
X116745276Y-95522500D02*
X117254724Y-95522500D01*
%TO.C,R2*%
X116832776Y-88477500D02*
X117342224Y-88477500D01*
X116832776Y-89522500D02*
X117342224Y-89522500D01*
%TO.C,D2*%
X112200000Y-88265000D02*
X114660000Y-88265000D01*
X114660000Y-88265000D02*
X114660000Y-89735000D01*
X114660000Y-89735000D02*
X112200000Y-89735000D01*
%TO.C,D1*%
X112200000Y-94265000D02*
X114660000Y-94265000D01*
X114660000Y-94265000D02*
X114660000Y-95735000D01*
X114660000Y-95735000D02*
X112200000Y-95735000D01*
%TD*%
M02*
