%TF.GenerationSoftware,KiCad,Pcbnew,10.0.4*%
%TF.CreationDate,2026-07-11T21:59:25+10:00*%
%TF.ProjectId,hotglue-beetle-screw-switch,686f7467-6c75-4652-9d62-6565746c652d,rev?*%
%TF.SameCoordinates,Original*%
%TF.FileFunction,Copper,L2,Bot*%
%TF.FilePolarity,Positive*%
%FSLAX46Y46*%
G04 Gerber Fmt 4.6, Leading zero omitted, Abs format (unit mm)*
G04 Created by KiCad (PCBNEW 10.0.4) date 2026-07-11 21:59:25*
%MOMM*%
%LPD*%
G01*
G04 APERTURE LIST*
G04 Aperture macros list*
%AMRoundRect*
0 Rectangle with rounded corners*
0 $1 Rounding radius*
0 $2 $3 $4 $5 $6 $7 $8 $9 X,Y pos of 4 corners*
0 Add a 4 corners polygon primitive as box body*
4,1,4,$2,$3,$4,$5,$6,$7,$8,$9,$2,$3,0*
0 Add four circle primitives for the rounded corners*
1,1,$1+$1,$2,$3*
1,1,$1+$1,$4,$5*
1,1,$1+$1,$6,$7*
1,1,$1+$1,$8,$9*
0 Add four rect primitives between the rounded corners*
20,1,$1+$1,$2,$3,$4,$5,0*
20,1,$1+$1,$4,$5,$6,$7,0*
20,1,$1+$1,$6,$7,$8,$9,0*
20,1,$1+$1,$8,$9,$2,$3,0*%
%AMFreePoly0*
4,1,120,-2.407097,3.659953,-2.050973,3.589116,-1.703508,3.483713,-1.368046,3.344760,-1.047820,3.173596,-0.745913,2.971868,-0.465232,2.741519,-0.208481,2.484768,0.021868,2.204087,0.223596,1.902180,0.394760,1.581954,0.533713,1.246492,0.639116,0.899027,0.709953,0.542903,0.745543,0.181550,0.745543,0.077766,0.746389,0.073513,0.746389,-0.073513,0.745543,-0.077766,0.745543,-0.181550,
0.709953,-0.542903,0.639116,-0.899027,0.533713,-1.246492,0.394760,-1.581954,0.223596,-1.902180,0.021868,-2.204087,-0.208481,-2.484768,-0.465232,-2.741519,-0.745913,-2.971868,-1.047820,-3.173596,-1.368046,-3.344760,-1.703508,-3.483713,-2.050973,-3.589116,-2.407097,-3.659953,-2.768450,-3.695543,-3.131550,-3.695543,-3.492903,-3.659953,-3.849027,-3.589116,-4.196492,-3.483713,-4.531954,-3.344760,
-4.852180,-3.173596,-5.154087,-2.971868,-5.434768,-2.741519,-5.691519,-2.484768,-5.921868,-2.204087,-6.123596,-1.902180,-6.294760,-1.581954,-6.433713,-1.246492,-6.539116,-0.899027,-6.609953,-0.542903,-6.645543,-0.181550,-6.645543,0.144196,-5.150000,0.144196,-5.150000,-0.144196,-5.112357,-0.430120,-5.037716,-0.708684,-4.927353,-0.975123,-4.783158,-1.224877,-4.607596,-1.453673,-4.403673,-1.657596,
-4.174877,-1.833158,-3.925123,-1.977353,-3.658684,-2.087716,-3.380120,-2.162357,-3.094196,-2.200000,-2.805804,-2.200000,-2.519880,-2.162357,-2.241316,-2.087716,-1.974877,-1.977353,-1.725123,-1.833158,-1.496327,-1.657596,-1.292404,-1.453673,-1.116842,-1.224877,-0.972647,-0.975123,-0.862284,-0.708684,-0.787643,-0.430120,-0.750000,-0.144196,-0.750000,0.144196,-0.787643,0.430120,-0.862284,0.708684,
-0.972647,0.975123,-1.116842,1.224877,-1.292404,1.453673,-1.496327,1.657596,-1.725123,1.833158,-1.974877,1.977353,-2.241316,2.087716,-2.519880,2.162357,-2.805804,2.200000,-3.094196,2.200000,-3.380120,2.162357,-3.658684,2.087716,-3.925123,1.977353,-4.174877,1.833158,-4.403673,1.657596,-4.607596,1.453673,-4.783158,1.224877,-4.927353,0.975123,-5.037716,0.708684,-5.112357,0.430120,
-5.150000,0.144196,-6.645543,0.144196,-6.645543,0.181550,-6.609953,0.542903,-6.539116,0.899027,-6.433713,1.246492,-6.294760,1.581954,-6.123596,1.902180,-5.921868,2.204087,-5.691519,2.484768,-5.434768,2.741519,-5.154087,2.971868,-4.852180,3.173596,-4.531954,3.344760,-4.196492,3.483713,-3.849027,3.589116,-3.492903,3.659953,-3.131550,3.695543,-2.768450,3.695543,-2.407097,3.659953,
-2.407097,3.659953,$1*%
G04 Aperture macros list end*
%TA.AperFunction,ComponentPad*%
%ADD10RoundRect,0.760000X-1.140000X1.140000X-1.140000X-1.140000X1.140000X-1.140000X1.140000X1.140000X0*%
%TD*%
%TA.AperFunction,ComponentPad*%
%ADD11C,4.000000*%
%TD*%
%TA.AperFunction,ComponentPad*%
%ADD12C,3.800000*%
%TD*%
%TA.AperFunction,SMDPad,CuDef*%
%ADD13RoundRect,0.237500X-0.250000X-0.237500X0.250000X-0.237500X0.250000X0.237500X-0.250000X0.237500X0*%
%TD*%
%TA.AperFunction,SMDPad,CuDef*%
%ADD14RoundRect,0.237500X0.287500X0.237500X-0.287500X0.237500X-0.287500X-0.237500X0.287500X-0.237500X0*%
%TD*%
%TA.AperFunction,SMDPad,CuDef*%
%ADD15C,0.992000*%
%TD*%
%TA.AperFunction,SMDPad,CuDef*%
%ADD16FreePoly0,180.000000*%
%TD*%
%TA.AperFunction,ViaPad*%
%ADD17C,1.000000*%
%TD*%
%TA.AperFunction,Conductor*%
%ADD18C,1.000000*%
%TD*%
G04 APERTURE END LIST*
D10*
%TO.P,J2,1,Pin_1_1*%
%TO.N,-BATT*%
X110000000Y-83500000D03*
D11*
%TO.P,J2,2,Pin_2_2*%
%TO.N,/BATT SWITCH*%
X110000000Y-88500000D03*
%TD*%
D10*
%TO.P,J1,1,Pin_1_1*%
%TO.N,-BATT*%
X103000000Y-83500000D03*
D12*
%TO.P,J1,2,Pin_2_2*%
%TO.N,+BATT*%
X103000000Y-88500000D03*
%TD*%
D10*
%TO.P,J3,1,Pin_1_1*%
%TO.N,-BATT*%
X117000000Y-83500000D03*
D11*
%TO.P,J3,2,Pin_2_2*%
%TO.N,/BATT SWITCH*%
X117000000Y-88500000D03*
%TD*%
D10*
%TO.P,J4,1,Pin_1_1*%
%TO.N,-BATT*%
X124000000Y-83500000D03*
D11*
%TO.P,J4,2,Pin_2_2*%
%TO.N,/BATT SWITCH*%
X124000000Y-88500000D03*
%TD*%
D13*
%TO.P,R1,1*%
%TO.N,Net-(D1-K)*%
X116087500Y-99000000D03*
%TO.P,R1,2*%
%TO.N,-BATT*%
X117912500Y-99000000D03*
%TD*%
%TO.P,R2,1*%
%TO.N,Net-(D2-K)*%
X116175000Y-93000000D03*
%TO.P,R2,2*%
%TO.N,-BATT*%
X118000000Y-93000000D03*
%TD*%
D14*
%TO.P,D2,1,K_1*%
%TO.N,Net-(D2-K)*%
X113875000Y-93000000D03*
%TO.P,D2,2,A_2*%
%TO.N,/BATT SWITCH*%
X112125000Y-93000000D03*
%TD*%
D15*
%TO.P,H1,1,1_1*%
%TO.N,+BATT*%
X109900000Y-96000000D03*
X106950000Y-98950000D03*
X106950000Y-93050000D03*
D16*
X104000000Y-96000000D03*
%TD*%
D14*
%TO.P,D1,1,K_1*%
%TO.N,Net-(D1-K)*%
X113875000Y-99000000D03*
%TO.P,D1,2,A_2*%
%TO.N,/BATT SWITCH*%
X112125000Y-99000000D03*
%TD*%
D17*
%TO.N,-BATT*%
X125000000Y-99000000D03*
X119000000Y-99000000D03*
X119000000Y-93000000D03*
X125000000Y-93000000D03*
%TO.N,/BATT SWITCH*%
X112000000Y-95000000D03*
X112000000Y-97000000D03*
%TD*%
%TO.N,-BATT*%
D18*
X118000000Y-93000000D02*
X119000000Y-93000000D01*
X117912500Y-99000000D02*
X119000000Y-99000000D01*
%TO.N,Net-(D1-K)*%
X113875000Y-99000000D02*
X116087500Y-99000000D01*
%TO.N,Net-(D2-K)*%
X113875000Y-93000000D02*
X116175000Y-93000000D01*
%TD*%
%TA.AperFunction,Conductor*%
%TO.N,-BATT*%
G36*
X125201552Y-80514511D02*
G01*
X125495215Y-80667382D01*
X125504555Y-80672775D01*
X125840787Y-80886978D01*
X125863311Y-80901328D01*
X125872172Y-80907532D01*
X126209645Y-81166484D01*
X126217932Y-81173438D01*
X126531542Y-81460808D01*
X126539191Y-81468457D01*
X126826561Y-81782067D01*
X126833515Y-81790354D01*
X127092467Y-82127827D01*
X127098671Y-82136688D01*
X127327216Y-82495430D01*
X127332625Y-82504798D01*
X127485489Y-82798447D01*
X127499500Y-82855704D01*
X127499500Y-97144294D01*
X127485489Y-97201551D01*
X127332625Y-97495201D01*
X127327216Y-97504569D01*
X127098671Y-97863311D01*
X127092467Y-97872172D01*
X126833515Y-98209645D01*
X126826561Y-98217932D01*
X126539191Y-98531542D01*
X126531542Y-98539191D01*
X126217932Y-98826561D01*
X126209645Y-98833515D01*
X125872172Y-99092467D01*
X125863311Y-99098671D01*
X125504569Y-99327216D01*
X125495201Y-99332625D01*
X125201552Y-99485489D01*
X125144295Y-99499500D01*
X117694027Y-99499500D01*
X117683408Y-99496382D01*
X117672410Y-99497601D01*
X117650479Y-99486712D01*
X117626988Y-99479815D01*
X117619741Y-99471452D01*
X117609829Y-99466531D01*
X117597265Y-99445513D01*
X117581233Y-99427011D01*
X117578721Y-99414490D01*
X117573980Y-99406559D01*
X117571541Y-99378703D01*
X117570092Y-99371480D01*
X117570184Y-99368624D01*
X117575500Y-99301084D01*
X117575500Y-99204754D01*
X117575565Y-99202751D01*
X117575895Y-99201747D01*
X117577027Y-99187372D01*
X117588000Y-99118096D01*
X117588000Y-98881903D01*
X117577027Y-98812626D01*
X117575500Y-98793227D01*
X117575500Y-98698923D01*
X117575500Y-98698916D01*
X117565201Y-98568051D01*
X117556001Y-98531542D01*
X117510752Y-98351966D01*
X117510751Y-98351963D01*
X117418593Y-98149069D01*
X117418592Y-98149067D01*
X117291684Y-97965887D01*
X117134112Y-97808315D01*
X116950932Y-97681407D01*
X116950930Y-97681406D01*
X116748036Y-97589248D01*
X116748033Y-97589247D01*
X116531957Y-97534800D01*
X116531951Y-97534799D01*
X116401089Y-97524500D01*
X116401084Y-97524500D01*
X116373194Y-97524500D01*
X116353796Y-97522973D01*
X116205597Y-97499500D01*
X116205592Y-97499500D01*
X113880637Y-97499500D01*
X113813598Y-97479815D01*
X113767843Y-97427011D01*
X113763885Y-97417274D01*
X113695141Y-97225148D01*
X113674288Y-97166866D01*
X113670758Y-97155227D01*
X113668019Y-97144294D01*
X113578339Y-96786268D01*
X113575965Y-96774334D01*
X113520155Y-96398096D01*
X113518962Y-96385986D01*
X113514448Y-96294095D01*
X113500298Y-96006065D01*
X113500298Y-95993934D01*
X113507085Y-95855778D01*
X119799500Y-95855778D01*
X119799500Y-96144221D01*
X119799501Y-96144238D01*
X119837149Y-96430206D01*
X119837150Y-96430211D01*
X119837151Y-96430217D01*
X119895675Y-96648632D01*
X119911809Y-96708844D01*
X119911814Y-96708860D01*
X120022191Y-96975336D01*
X120022199Y-96975352D01*
X120166420Y-97225148D01*
X120166431Y-97225164D01*
X120342024Y-97454002D01*
X120342030Y-97454009D01*
X120545990Y-97657969D01*
X120545997Y-97657975D01*
X120576536Y-97681408D01*
X120774844Y-97833575D01*
X120774851Y-97833579D01*
X121024647Y-97977800D01*
X121024663Y-97977808D01*
X121291139Y-98088185D01*
X121291145Y-98088186D01*
X121291155Y-98088191D01*
X121569783Y-98162849D01*
X121855772Y-98200500D01*
X121855779Y-98200500D01*
X122144221Y-98200500D01*
X122144228Y-98200500D01*
X122430217Y-98162849D01*
X122708845Y-98088191D01*
X122708857Y-98088185D01*
X122708860Y-98088185D01*
X122975336Y-97977808D01*
X122975339Y-97977806D01*
X122975345Y-97977804D01*
X123225156Y-97833575D01*
X123454004Y-97657974D01*
X123657974Y-97454004D01*
X123833575Y-97225156D01*
X123977804Y-96975345D01*
X124088191Y-96708845D01*
X124162849Y-96430217D01*
X124200500Y-96144228D01*
X124200500Y-95855772D01*
X124162849Y-95569783D01*
X124088191Y-95291155D01*
X124088186Y-95291145D01*
X124088185Y-95291139D01*
X123977808Y-95024663D01*
X123977800Y-95024647D01*
X123833579Y-94774851D01*
X123833575Y-94774844D01*
X123657974Y-94545996D01*
X123657969Y-94545990D01*
X123454009Y-94342030D01*
X123454002Y-94342024D01*
X123225164Y-94166431D01*
X123225162Y-94166429D01*
X123225156Y-94166425D01*
X123225151Y-94166422D01*
X123225148Y-94166420D01*
X122975352Y-94022199D01*
X122975336Y-94022191D01*
X122708860Y-93911814D01*
X122708848Y-93911810D01*
X122708845Y-93911809D01*
X122430217Y-93837151D01*
X122430211Y-93837150D01*
X122430206Y-93837149D01*
X122144238Y-93799501D01*
X122144233Y-93799500D01*
X122144228Y-93799500D01*
X121855772Y-93799500D01*
X121855766Y-93799500D01*
X121855761Y-93799501D01*
X121569793Y-93837149D01*
X121569786Y-93837150D01*
X121569783Y-93837151D01*
X121518352Y-93850932D01*
X121291155Y-93911809D01*
X121291139Y-93911814D01*
X121024663Y-94022191D01*
X121024647Y-94022199D01*
X120774851Y-94166420D01*
X120774835Y-94166431D01*
X120545997Y-94342024D01*
X120545990Y-94342030D01*
X120342030Y-94545990D01*
X120342024Y-94545997D01*
X120166431Y-94774835D01*
X120166420Y-94774851D01*
X120022199Y-95024647D01*
X120022191Y-95024663D01*
X119911814Y-95291139D01*
X119911809Y-95291155D01*
X119837152Y-95569780D01*
X119837149Y-95569793D01*
X119799501Y-95855761D01*
X119799500Y-95855778D01*
X113507085Y-95855778D01*
X113518962Y-95614008D01*
X113520155Y-95601903D01*
X113566251Y-95291155D01*
X113575965Y-95225662D01*
X113578339Y-95213731D01*
X113670758Y-94844772D01*
X113674291Y-94833127D01*
X113763886Y-94582726D01*
X113805004Y-94526237D01*
X113870136Y-94500945D01*
X113880637Y-94500500D01*
X116293097Y-94500500D01*
X116441296Y-94477027D01*
X116460694Y-94475500D01*
X116488576Y-94475500D01*
X116488584Y-94475500D01*
X116619449Y-94465201D01*
X116835538Y-94410751D01*
X117038433Y-94318592D01*
X117221611Y-94191685D01*
X117379185Y-94034111D01*
X117506092Y-93850933D01*
X117598251Y-93648038D01*
X117652701Y-93431949D01*
X117663000Y-93301084D01*
X117663000Y-93206771D01*
X117664527Y-93187372D01*
X117675500Y-93118096D01*
X117675500Y-92881903D01*
X117664527Y-92812626D01*
X117663000Y-92793227D01*
X117663000Y-92698923D01*
X117663000Y-92698916D01*
X117652701Y-92568051D01*
X117598251Y-92351962D01*
X117517999Y-92175281D01*
X117508196Y-92106102D01*
X117537351Y-92042606D01*
X117596206Y-92004952D01*
X117630898Y-92000000D01*
X126000000Y-92000000D01*
X126000000Y-90794710D01*
X126019685Y-90727671D01*
X126036319Y-90707029D01*
X126077205Y-90666143D01*
X126240825Y-90502523D01*
X126450946Y-90239039D01*
X126630246Y-89953686D01*
X126776469Y-89650051D01*
X126887776Y-89331954D01*
X126962767Y-89003394D01*
X127000500Y-88668504D01*
X127000500Y-88331496D01*
X126962767Y-87996606D01*
X126887776Y-87668046D01*
X126776469Y-87349949D01*
X126630246Y-87046314D01*
X126450946Y-86760961D01*
X126240825Y-86497477D01*
X126036319Y-86292971D01*
X126002834Y-86231648D01*
X126000000Y-86205290D01*
X126000000Y-85500000D01*
X124179905Y-85500000D01*
X124171985Y-85499555D01*
X124171978Y-85499695D01*
X124168505Y-85499500D01*
X124168504Y-85499500D01*
X123831496Y-85499500D01*
X123831495Y-85499500D01*
X123828022Y-85499695D01*
X123828014Y-85499555D01*
X123820095Y-85500000D01*
X117179905Y-85500000D01*
X117171985Y-85499555D01*
X117171978Y-85499695D01*
X117168505Y-85499500D01*
X117168504Y-85499500D01*
X116831496Y-85499500D01*
X116831495Y-85499500D01*
X116828022Y-85499695D01*
X116828014Y-85499555D01*
X116820095Y-85500000D01*
X110179905Y-85500000D01*
X110171985Y-85499555D01*
X110171978Y-85499695D01*
X110168505Y-85499500D01*
X110168504Y-85499500D01*
X109831496Y-85499500D01*
X109831495Y-85499500D01*
X109828022Y-85499695D01*
X109828014Y-85499555D01*
X109820095Y-85500000D01*
X102753751Y-85500000D01*
X102746264Y-85499774D01*
X102426009Y-85480401D01*
X102411145Y-85478596D01*
X102099256Y-85421441D01*
X102084717Y-85417857D01*
X101782004Y-85323528D01*
X101768003Y-85318219D01*
X101478850Y-85188082D01*
X101465591Y-85181123D01*
X101194240Y-85017086D01*
X101181917Y-85008580D01*
X101170965Y-85000000D01*
X100932314Y-84813028D01*
X100921106Y-84803098D01*
X100696901Y-84578893D01*
X100686971Y-84567685D01*
X100526889Y-84363355D01*
X100501040Y-84298443D01*
X100500500Y-84286882D01*
X100500500Y-81213117D01*
X100520185Y-81146078D01*
X100526889Y-81136644D01*
X100686978Y-80932305D01*
X100696893Y-80921114D01*
X100921114Y-80696893D01*
X100932305Y-80686978D01*
X101136645Y-80526889D01*
X101201557Y-80501040D01*
X101213118Y-80500500D01*
X125144295Y-80500500D01*
X125201552Y-80514511D01*
G37*
%TD.AperFunction*%
%TD*%
%TA.AperFunction,Conductor*%
%TO.N,/BATT SWITCH*%
G36*
X117163835Y-86505049D02*
G01*
X117179900Y-86505500D01*
X123820095Y-86505500D01*
X123820098Y-86505500D01*
X123829900Y-86505224D01*
X123836158Y-86505048D01*
X123839637Y-86505000D01*
X124160355Y-86505000D01*
X124163835Y-86505049D01*
X124179900Y-86505500D01*
X124179905Y-86505500D01*
X124950411Y-86505500D01*
X125017450Y-86525185D01*
X125063205Y-86577989D01*
X125064697Y-86581388D01*
X125120327Y-86713532D01*
X125153815Y-86774861D01*
X125196749Y-86846282D01*
X125196755Y-86846290D01*
X125315083Y-86991409D01*
X125325325Y-87003969D01*
X125484975Y-87163619D01*
X125494241Y-87173987D01*
X125625263Y-87338284D01*
X125633310Y-87349625D01*
X125745118Y-87527565D01*
X125751844Y-87539735D01*
X125843019Y-87729061D01*
X125848341Y-87741909D01*
X125917752Y-87940278D01*
X125921601Y-87953639D01*
X125968360Y-88158504D01*
X125970689Y-88172213D01*
X125994220Y-88381043D01*
X125995000Y-88394927D01*
X125995000Y-88605071D01*
X125994220Y-88618955D01*
X125970689Y-88827785D01*
X125968360Y-88841494D01*
X125921601Y-89046359D01*
X125917752Y-89059720D01*
X125848341Y-89258089D01*
X125843019Y-89270937D01*
X125751844Y-89460263D01*
X125745118Y-89472433D01*
X125633310Y-89650373D01*
X125625267Y-89661708D01*
X125625263Y-89661714D01*
X125494244Y-89826007D01*
X125484979Y-89836375D01*
X125325321Y-89996034D01*
X125253383Y-90076122D01*
X125236760Y-90096751D01*
X125236751Y-90096763D01*
X125131694Y-90255969D01*
X125131693Y-90255971D01*
X125054914Y-90444388D01*
X125035233Y-90511416D01*
X125015082Y-90592307D01*
X124994500Y-90794708D01*
X124994500Y-90870500D01*
X124974815Y-90937539D01*
X124922011Y-90983294D01*
X124870500Y-90994500D01*
X117630898Y-90994500D01*
X117563889Y-90999258D01*
X117488815Y-91004589D01*
X117454118Y-91009542D01*
X117432245Y-91012910D01*
X117235917Y-91066217D01*
X117235914Y-91066218D01*
X117054324Y-91157960D01*
X116995461Y-91195620D01*
X116863086Y-91296685D01*
X116726738Y-91447679D01*
X116726733Y-91447686D01*
X116712315Y-91472193D01*
X116701109Y-91482702D01*
X116693862Y-91496248D01*
X116676146Y-91506117D01*
X116661354Y-91519992D01*
X116645343Y-91523278D01*
X116632825Y-91530252D01*
X116599720Y-91532641D01*
X116597643Y-91533068D01*
X116596707Y-91533009D01*
X116488589Y-91524500D01*
X116488584Y-91524500D01*
X116461662Y-91524500D01*
X116457774Y-91524255D01*
X116457583Y-91524185D01*
X116455835Y-91524117D01*
X116446136Y-91523353D01*
X116436475Y-91522209D01*
X116333078Y-91505832D01*
X116293097Y-91499500D01*
X116293096Y-91499500D01*
X113756904Y-91499500D01*
X113756903Y-91499500D01*
X113725639Y-91504451D01*
X113613524Y-91522209D01*
X113603864Y-91523353D01*
X113594166Y-91524117D01*
X113584428Y-91524500D01*
X113523904Y-91524500D01*
X113393045Y-91534799D01*
X113393039Y-91534800D01*
X113393038Y-91534800D01*
X113176979Y-91589242D01*
X113176978Y-91589243D01*
X113176954Y-91589251D01*
X112974071Y-91681404D01*
X112974069Y-91681406D01*
X112974066Y-91681407D01*
X112790885Y-91808315D01*
X112633315Y-91965885D01*
X112506407Y-92149066D01*
X112506406Y-92149069D01*
X112506404Y-92149071D01*
X112414251Y-92351954D01*
X112414243Y-92351978D01*
X112414242Y-92351979D01*
X112359800Y-92568038D01*
X112359800Y-92568039D01*
X112359799Y-92568045D01*
X112349500Y-92698904D01*
X112349500Y-93301094D01*
X112359799Y-93431953D01*
X112359800Y-93431959D01*
X112359800Y-93431960D01*
X112414242Y-93648019D01*
X112414243Y-93648020D01*
X112414251Y-93648044D01*
X112506404Y-93850927D01*
X112506406Y-93850930D01*
X112506407Y-93850932D01*
X112633315Y-94034113D01*
X112768497Y-94169295D01*
X112801982Y-94230618D01*
X112797567Y-94298750D01*
X112727579Y-94494350D01*
X112712102Y-94541198D01*
X112708565Y-94552857D01*
X112695387Y-94600468D01*
X112620993Y-94897468D01*
X112602972Y-94969415D01*
X112592172Y-95017506D01*
X112592170Y-95017517D01*
X112589797Y-95029442D01*
X112581347Y-95078134D01*
X112571634Y-95143615D01*
X112525535Y-95454377D01*
X112519504Y-95503266D01*
X112518309Y-95515392D01*
X112514673Y-95564666D01*
X112502796Y-95806441D01*
X112497135Y-95921672D01*
X112496009Y-95944587D01*
X112494798Y-95993949D01*
X112494798Y-96006050D01*
X112496009Y-96055402D01*
X112514673Y-96435331D01*
X112518306Y-96484567D01*
X112519499Y-96496685D01*
X112525535Y-96545618D01*
X112581349Y-96921883D01*
X112589784Y-96970490D01*
X112589788Y-96970512D01*
X112592162Y-96982446D01*
X112592167Y-96982468D01*
X112602967Y-97030568D01*
X112695396Y-97399564D01*
X112708534Y-97447039D01*
X112708540Y-97447059D01*
X112712070Y-97458698D01*
X112712073Y-97458706D01*
X112727560Y-97505593D01*
X112797566Y-97701250D01*
X112801616Y-97771002D01*
X112768496Y-97830705D01*
X112633312Y-97965888D01*
X112506407Y-98149066D01*
X112506406Y-98149069D01*
X112506404Y-98149071D01*
X112414251Y-98351954D01*
X112414243Y-98351978D01*
X112414242Y-98351979D01*
X112359800Y-98568038D01*
X112359800Y-98568039D01*
X112359799Y-98568045D01*
X112349500Y-98698904D01*
X112349500Y-99301094D01*
X112353191Y-99347998D01*
X112353192Y-99347999D01*
X112350926Y-99383216D01*
X112347805Y-99398069D01*
X112314761Y-99459629D01*
X112257554Y-99492614D01*
X112246270Y-99495537D01*
X112215173Y-99499500D01*
X111337029Y-99499500D01*
X111327445Y-99498121D01*
X111327431Y-99498398D01*
X111323220Y-99498180D01*
X111314899Y-99496317D01*
X111302087Y-99494475D01*
X111298900Y-99493539D01*
X111299121Y-99492785D01*
X111282641Y-99489097D01*
X111279796Y-99487932D01*
X111276766Y-99486870D01*
X111277004Y-99486189D01*
X111265900Y-99479357D01*
X111251898Y-99475836D01*
X111224344Y-99453791D01*
X111223642Y-99453043D01*
X111212535Y-99439364D01*
X111176790Y-99388314D01*
X111170981Y-99379196D01*
X111165590Y-99369858D01*
X111160598Y-99360269D01*
X111082250Y-99192251D01*
X111078120Y-99182280D01*
X111074421Y-99172116D01*
X111071174Y-99161816D01*
X111023197Y-98982759D01*
X111020859Y-98972217D01*
X111018980Y-98961561D01*
X111017572Y-98950858D01*
X111000708Y-98758095D01*
X111000354Y-98752692D01*
X111000118Y-98747282D01*
X111000000Y-98741878D01*
X111000000Y-98451374D01*
X111003715Y-98421247D01*
X111010928Y-98392451D01*
X111021853Y-98364134D01*
X111025267Y-98357747D01*
X111185565Y-98057852D01*
X111185578Y-98057825D01*
X111201405Y-98024363D01*
X111201414Y-98024341D01*
X111202290Y-98022490D01*
X111227752Y-97968657D01*
X111227760Y-97968638D01*
X111274630Y-97855483D01*
X111366875Y-97632784D01*
X111400117Y-97539878D01*
X111505647Y-97191993D01*
X111529624Y-97096274D01*
X111600547Y-96739720D01*
X111615025Y-96642113D01*
X111650658Y-96280325D01*
X111655500Y-96181769D01*
X111655500Y-95818231D01*
X111650658Y-95719675D01*
X111615025Y-95357887D01*
X111600547Y-95260280D01*
X111529624Y-94903726D01*
X111509216Y-94822254D01*
X111505500Y-94792124D01*
X111505500Y-93258158D01*
X111505500Y-93258119D01*
X111505259Y-93236088D01*
X111505140Y-93230658D01*
X111504416Y-93208658D01*
X111504179Y-93203251D01*
X111502984Y-93181413D01*
X111502631Y-93176036D01*
X111500965Y-93154269D01*
X111484100Y-92961504D01*
X111479323Y-92917893D01*
X111477911Y-92907168D01*
X111471239Y-92863818D01*
X111469367Y-92853201D01*
X111460814Y-92810196D01*
X111458473Y-92799635D01*
X111448041Y-92757000D01*
X111400065Y-92577947D01*
X111387784Y-92535814D01*
X111384530Y-92525494D01*
X111370424Y-92483942D01*
X111366732Y-92473799D01*
X111350834Y-92432919D01*
X111346695Y-92422927D01*
X111329032Y-92382784D01*
X111250697Y-92214795D01*
X111231287Y-92175437D01*
X111226293Y-92165844D01*
X111217089Y-92149067D01*
X111205212Y-92127417D01*
X111199829Y-92118093D01*
X111177073Y-92080589D01*
X111171298Y-92071524D01*
X111171285Y-92071503D01*
X111146862Y-92034947D01*
X111146855Y-92034937D01*
X111146845Y-92034922D01*
X111040536Y-91883098D01*
X111014583Y-91847703D01*
X111007988Y-91839109D01*
X110980569Y-91804947D01*
X110973633Y-91796681D01*
X110973628Y-91796675D01*
X110944680Y-91763666D01*
X110942231Y-91760994D01*
X110937390Y-91755710D01*
X110937371Y-91755690D01*
X110907050Y-91724017D01*
X110775981Y-91592948D01*
X110744308Y-91562627D01*
X110744305Y-91562624D01*
X110744287Y-91562607D01*
X110736347Y-91555332D01*
X110736332Y-91555318D01*
X110712936Y-91534800D01*
X110703311Y-91526359D01*
X110695071Y-91519445D01*
X110660856Y-91491985D01*
X110660842Y-91491974D01*
X110652260Y-91485389D01*
X110634262Y-91472193D01*
X110616898Y-91459461D01*
X110465039Y-91353129D01*
X110428611Y-91328786D01*
X110419486Y-91322972D01*
X110401594Y-91312115D01*
X110381925Y-91300180D01*
X110372587Y-91294789D01*
X110372586Y-91294788D01*
X110372561Y-91294774D01*
X110334215Y-91273736D01*
X110324629Y-91268745D01*
X110285202Y-91249300D01*
X110117214Y-91170967D01*
X110117204Y-91170962D01*
X110117192Y-91170957D01*
X110077024Y-91153283D01*
X110067048Y-91149151D01*
X110067037Y-91149147D01*
X110067016Y-91149138D01*
X110026213Y-91133270D01*
X110016059Y-91129574D01*
X109974482Y-91115459D01*
X109964202Y-91112218D01*
X109922083Y-91099941D01*
X109742985Y-91051953D01*
X109700421Y-91041537D01*
X109689853Y-91039194D01*
X109646817Y-91030634D01*
X109646812Y-91030633D01*
X109645992Y-91030488D01*
X109636129Y-91028748D01*
X109592776Y-91022077D01*
X109584056Y-91020930D01*
X109582031Y-91020664D01*
X109582022Y-91020663D01*
X109538466Y-91015895D01*
X109345751Y-90999036D01*
X109345745Y-90999035D01*
X109345716Y-90999033D01*
X109334352Y-90998164D01*
X109323789Y-90997356D01*
X109318365Y-90997001D01*
X109296506Y-90995809D01*
X109291139Y-90995574D01*
X109269241Y-90994858D01*
X109263835Y-90994740D01*
X109259346Y-90994691D01*
X109241879Y-90994500D01*
X109241840Y-90994500D01*
X109129500Y-90994500D01*
X109062461Y-90974815D01*
X109016706Y-90922011D01*
X109005500Y-90870500D01*
X109005500Y-90805171D01*
X109004379Y-90757724D01*
X108974264Y-90556514D01*
X108959097Y-90497094D01*
X108959095Y-90497085D01*
X108946271Y-90451374D01*
X108867330Y-90263864D01*
X108854722Y-90240775D01*
X108854710Y-90240756D01*
X108777164Y-90120095D01*
X108777157Y-90120086D01*
X108756018Y-90091848D01*
X108756014Y-90091843D01*
X108756010Y-90091838D01*
X108662070Y-89983426D01*
X108515027Y-89836383D01*
X108505761Y-89826015D01*
X108374731Y-89661708D01*
X108366684Y-89650367D01*
X108254881Y-89472434D01*
X108248155Y-89460264D01*
X108156969Y-89270915D01*
X108151651Y-89258076D01*
X108082252Y-89059749D01*
X108078403Y-89046389D01*
X108038714Y-88872502D01*
X108037636Y-88822560D01*
X108077888Y-88602909D01*
X108079452Y-88595624D01*
X108081250Y-88588330D01*
X108083257Y-88581138D01*
X108141283Y-88394927D01*
X108175358Y-88285573D01*
X108177796Y-88278508D01*
X108180445Y-88271522D01*
X108183314Y-88264596D01*
X108310392Y-87982242D01*
X108313654Y-87975538D01*
X108317139Y-87968898D01*
X108320803Y-87962403D01*
X108334178Y-87940278D01*
X108480999Y-87697406D01*
X108485035Y-87691163D01*
X108489295Y-87684992D01*
X108493695Y-87679011D01*
X108684682Y-87435235D01*
X108689435Y-87429531D01*
X108694443Y-87423878D01*
X108699529Y-87418477D01*
X108918477Y-87199529D01*
X108923878Y-87194443D01*
X108929531Y-87189435D01*
X108935235Y-87184682D01*
X109179011Y-86993695D01*
X109184992Y-86989295D01*
X109191163Y-86985035D01*
X109197406Y-86980999D01*
X109462414Y-86820796D01*
X109468898Y-86817139D01*
X109475538Y-86813654D01*
X109482242Y-86810392D01*
X109764596Y-86683314D01*
X109771516Y-86680447D01*
X109774276Y-86679400D01*
X109778508Y-86677796D01*
X109785573Y-86675358D01*
X110081149Y-86583253D01*
X110088326Y-86581251D01*
X110095631Y-86579450D01*
X110102905Y-86577889D01*
X110407487Y-86522072D01*
X110414828Y-86520955D01*
X110422319Y-86520045D01*
X110429716Y-86519373D01*
X110636631Y-86506857D01*
X110655339Y-86505726D01*
X110662825Y-86505500D01*
X116820098Y-86505500D01*
X116829900Y-86505224D01*
X116836158Y-86505048D01*
X116839637Y-86505000D01*
X117160355Y-86505000D01*
X117163835Y-86505049D01*
G37*
%TD.AperFunction*%
%TD*%
%TA.AperFunction,Conductor*%
%TO.N,+BATT*%
G36*
X102193499Y-86460954D02*
G01*
X102229901Y-86467626D01*
X102289933Y-86476763D01*
X102304797Y-86478568D01*
X102365295Y-86484066D01*
X102685550Y-86503439D01*
X102715926Y-86504816D01*
X102723413Y-86505042D01*
X102753751Y-86505500D01*
X106620943Y-86505500D01*
X106640713Y-86511305D01*
X106661300Y-86512251D01*
X106684502Y-86524163D01*
X106687982Y-86525185D01*
X106692698Y-86528371D01*
X106861947Y-86648460D01*
X106867489Y-86652629D01*
X106872918Y-86656957D01*
X106878249Y-86661459D01*
X106896475Y-86677747D01*
X106896476Y-86677747D01*
X107113541Y-86871728D01*
X107118595Y-86876507D01*
X107123489Y-86881401D01*
X107128267Y-86886455D01*
X107151142Y-86912052D01*
X107151143Y-86912052D01*
X107268128Y-87042958D01*
X107287662Y-87072357D01*
X107294371Y-87086473D01*
X107297177Y-87104077D01*
X107304830Y-87120177D01*
X107305371Y-87155467D01*
X107303640Y-87168971D01*
X107292366Y-87207007D01*
X107223534Y-87349937D01*
X107112226Y-87668036D01*
X107112222Y-87668048D01*
X107037231Y-87996607D01*
X106999500Y-88331486D01*
X106999500Y-88668512D01*
X107037231Y-89003391D01*
X107112223Y-89331952D01*
X107112227Y-89331968D01*
X107112234Y-89331989D01*
X107223529Y-89650047D01*
X107223535Y-89650061D01*
X107369751Y-89953681D01*
X107369955Y-89954039D01*
X107370641Y-89955098D01*
X107549054Y-90239039D01*
X107705811Y-90435606D01*
X107759174Y-90502522D01*
X107951074Y-90694422D01*
X107972223Y-90722673D01*
X107984831Y-90745762D01*
X108000000Y-90805191D01*
X108000000Y-92000000D01*
X109241879Y-92000000D01*
X109247284Y-92000118D01*
X109252693Y-92000354D01*
X109258085Y-92000707D01*
X109450861Y-92017572D01*
X109461562Y-92018980D01*
X109472219Y-92020859D01*
X109482755Y-92023195D01*
X109543840Y-92039563D01*
X109661835Y-92071179D01*
X109672127Y-92074424D01*
X109682275Y-92078118D01*
X109692251Y-92082250D01*
X109860274Y-92160600D01*
X109869858Y-92165590D01*
X109879196Y-92170981D01*
X109888315Y-92176791D01*
X110040162Y-92283115D01*
X110048744Y-92289700D01*
X110057009Y-92296635D01*
X110064985Y-92303944D01*
X110196054Y-92435013D01*
X110203363Y-92442989D01*
X110210298Y-92451254D01*
X110216879Y-92459830D01*
X110323206Y-92611680D01*
X110329013Y-92620797D01*
X110334411Y-92630147D01*
X110339405Y-92639740D01*
X110417740Y-92807729D01*
X110421879Y-92817721D01*
X110425571Y-92827864D01*
X110428825Y-92838184D01*
X110476801Y-93017237D01*
X110479142Y-93027798D01*
X110481014Y-93038415D01*
X110482426Y-93049140D01*
X110499291Y-93241905D01*
X110499644Y-93247282D01*
X110499881Y-93252689D01*
X110500000Y-93258119D01*
X110500000Y-94868254D01*
X110499903Y-94873146D01*
X110499712Y-94877984D01*
X110499537Y-94880958D01*
X110499500Y-94881913D01*
X110499500Y-95118090D01*
X110499537Y-95119050D01*
X110499711Y-95121995D01*
X110499903Y-95126853D01*
X110500000Y-95131750D01*
X110500000Y-95995424D01*
X110499962Y-95998484D01*
X110499887Y-96001522D01*
X110499776Y-96004547D01*
X110481186Y-96382945D01*
X110480737Y-96389027D01*
X110480140Y-96395082D01*
X110479396Y-96401109D01*
X110424480Y-96771325D01*
X110423437Y-96777336D01*
X110422251Y-96783295D01*
X110420920Y-96789219D01*
X110329978Y-97152284D01*
X110328351Y-97158162D01*
X110326584Y-97163985D01*
X110324678Y-97169752D01*
X110198602Y-97522110D01*
X110196421Y-97527767D01*
X110194089Y-97533400D01*
X110191614Y-97538986D01*
X110031589Y-97877332D01*
X110028842Y-97882787D01*
X110025971Y-97888156D01*
X110022981Y-97893433D01*
X109830573Y-98214445D01*
X109827320Y-98219583D01*
X109823952Y-98224624D01*
X109820445Y-98229604D01*
X109597478Y-98530240D01*
X109593733Y-98535038D01*
X109589875Y-98539739D01*
X109585900Y-98544347D01*
X109334559Y-98821660D01*
X109330362Y-98826068D01*
X109326068Y-98830362D01*
X109321660Y-98834559D01*
X109044347Y-99085900D01*
X109039739Y-99089875D01*
X109035038Y-99093733D01*
X109030240Y-99097478D01*
X108729604Y-99320445D01*
X108724624Y-99323952D01*
X108719583Y-99327320D01*
X108714445Y-99330573D01*
X108476490Y-99473199D01*
X108445817Y-99486348D01*
X108414531Y-99495007D01*
X108381455Y-99499500D01*
X102870655Y-99499500D01*
X102841182Y-99495946D01*
X102812968Y-99489042D01*
X102785186Y-99478585D01*
X102711034Y-99439984D01*
X102507200Y-99333874D01*
X102502458Y-99331273D01*
X102497771Y-99328567D01*
X102493145Y-99325760D01*
X102437676Y-99290422D01*
X102316059Y-99212943D01*
X102138962Y-99100119D01*
X102134468Y-99097116D01*
X102132231Y-99095550D01*
X102130030Y-99094009D01*
X102125676Y-99090816D01*
X101941013Y-98949119D01*
X101792485Y-98835150D01*
X101788291Y-98831784D01*
X101784121Y-98828284D01*
X101780073Y-98824734D01*
X101470452Y-98541019D01*
X101466544Y-98537278D01*
X101462720Y-98533454D01*
X101458979Y-98529546D01*
X101175264Y-98219925D01*
X101171716Y-98215881D01*
X101168210Y-98211702D01*
X101164853Y-98207519D01*
X100913604Y-97880085D01*
X100909182Y-97874322D01*
X100905987Y-97869965D01*
X100902877Y-97865524D01*
X100899898Y-97861066D01*
X100692955Y-97536232D01*
X100674221Y-97506825D01*
X100671439Y-97502242D01*
X100668728Y-97497548D01*
X100666130Y-97492811D01*
X100533079Y-97237222D01*
X100533078Y-97237220D01*
X100521414Y-97214813D01*
X100510957Y-97187029D01*
X100504053Y-97158813D01*
X100500500Y-97129342D01*
X100500500Y-95855783D01*
X104749500Y-95855783D01*
X104749500Y-96144215D01*
X104749501Y-96144244D01*
X104783318Y-96401109D01*
X104787149Y-96430206D01*
X104787150Y-96430211D01*
X104787151Y-96430217D01*
X104787152Y-96430219D01*
X104788452Y-96435070D01*
X104788458Y-96435096D01*
X104822003Y-96560287D01*
X104861809Y-96708844D01*
X104861814Y-96708860D01*
X104861816Y-96708865D01*
X104861817Y-96708868D01*
X104972193Y-96975342D01*
X104972195Y-96975345D01*
X104972198Y-96975350D01*
X105102795Y-97201550D01*
X105116420Y-97225148D01*
X105116431Y-97225164D01*
X105164724Y-97288101D01*
X105292017Y-97453994D01*
X105292021Y-97453999D01*
X105292024Y-97454002D01*
X105292030Y-97454009D01*
X105292038Y-97454017D01*
X105495976Y-97657956D01*
X105495992Y-97657971D01*
X105496000Y-97657977D01*
X105724851Y-97833580D01*
X105725077Y-97833710D01*
X105805401Y-97880085D01*
X105974647Y-97977800D01*
X105974663Y-97977808D01*
X105978736Y-97979495D01*
X106237097Y-98086511D01*
X106237101Y-98086512D01*
X106241139Y-98088185D01*
X106241209Y-98088214D01*
X106242254Y-98088504D01*
X106245412Y-98089408D01*
X106246913Y-98089734D01*
X106277606Y-98097958D01*
X106519783Y-98162849D01*
X106805772Y-98200500D01*
X106805779Y-98200500D01*
X107094221Y-98200500D01*
X107094228Y-98200500D01*
X107380217Y-98162849D01*
X107658845Y-98088191D01*
X107658857Y-98088185D01*
X107658860Y-98088185D01*
X107662091Y-98086846D01*
X107662330Y-98086771D01*
X107662901Y-98086511D01*
X107925336Y-97977808D01*
X107925339Y-97977806D01*
X107925345Y-97977804D01*
X108175156Y-97833575D01*
X108404004Y-97657974D01*
X108607974Y-97454004D01*
X108783575Y-97225156D01*
X108927804Y-96975345D01*
X109004900Y-96789219D01*
X109038185Y-96708860D01*
X109038185Y-96708857D01*
X109038191Y-96708845D01*
X109112849Y-96430217D01*
X109150500Y-96144228D01*
X109150500Y-95855772D01*
X109112849Y-95569783D01*
X109038191Y-95291155D01*
X109038190Y-95291151D01*
X109036515Y-95287108D01*
X109036514Y-95287105D01*
X109036511Y-95287097D01*
X108927809Y-95024666D01*
X108927803Y-95024653D01*
X108927800Y-95024648D01*
X108927800Y-95024647D01*
X108837506Y-94868254D01*
X108783710Y-94775077D01*
X108783580Y-94774851D01*
X108783580Y-94774850D01*
X108607977Y-94546000D01*
X108607971Y-94545992D01*
X108607956Y-94545976D01*
X108404017Y-94342038D01*
X108404009Y-94342030D01*
X108404002Y-94342024D01*
X108403999Y-94342021D01*
X108403994Y-94342017D01*
X108178741Y-94169175D01*
X108178729Y-94169166D01*
X108175164Y-94166431D01*
X108175162Y-94166429D01*
X108175156Y-94166425D01*
X108175151Y-94166422D01*
X108175148Y-94166420D01*
X108173402Y-94165412D01*
X108173398Y-94165409D01*
X107925350Y-94022198D01*
X107925345Y-94022195D01*
X107925332Y-94022189D01*
X107658869Y-93911817D01*
X107658851Y-93911810D01*
X107658840Y-93911807D01*
X107380221Y-93837152D01*
X107380219Y-93837151D01*
X107380217Y-93837151D01*
X107380211Y-93837150D01*
X107380206Y-93837149D01*
X107380201Y-93837148D01*
X107098328Y-93800039D01*
X107096312Y-93799705D01*
X107094238Y-93799500D01*
X107094233Y-93799500D01*
X107094228Y-93799500D01*
X106805772Y-93799500D01*
X106805766Y-93799500D01*
X106805761Y-93799500D01*
X106803684Y-93799705D01*
X106801670Y-93800039D01*
X106519814Y-93837146D01*
X106519782Y-93837150D01*
X106517965Y-93837579D01*
X106516198Y-93838110D01*
X106451368Y-93855482D01*
X106451367Y-93855483D01*
X106241155Y-93911809D01*
X106241139Y-93911814D01*
X106241136Y-93911815D01*
X106241130Y-93911817D01*
X105974656Y-94022193D01*
X105974653Y-94022195D01*
X105974648Y-94022198D01*
X105724855Y-94166417D01*
X105724838Y-94166429D01*
X105724824Y-94166439D01*
X105496004Y-94342017D01*
X105495989Y-94342031D01*
X105495981Y-94342038D01*
X105292038Y-94545981D01*
X105292031Y-94545989D01*
X105292017Y-94546004D01*
X105116439Y-94774824D01*
X105116429Y-94774838D01*
X105116417Y-94774855D01*
X104972198Y-95024648D01*
X104972195Y-95024653D01*
X104972193Y-95024656D01*
X104861817Y-95291130D01*
X104861815Y-95291136D01*
X104861814Y-95291139D01*
X104861809Y-95291155D01*
X104834483Y-95393133D01*
X104787153Y-95569772D01*
X104787150Y-95569789D01*
X104787147Y-95569802D01*
X104749501Y-95855754D01*
X104749500Y-95855783D01*
X100500500Y-95855783D01*
X100500500Y-88118545D01*
X100504990Y-88085477D01*
X100513651Y-88054180D01*
X100526798Y-88023512D01*
X100669432Y-87785542D01*
X100672672Y-87780425D01*
X100673092Y-87779795D01*
X100676048Y-87775370D01*
X100679530Y-87770424D01*
X100902541Y-87469728D01*
X100906260Y-87464964D01*
X100910134Y-87460244D01*
X100914069Y-87455682D01*
X101165475Y-87178299D01*
X101169632Y-87173933D01*
X101173933Y-87169632D01*
X101178299Y-87165475D01*
X101455682Y-86914069D01*
X101460244Y-86910134D01*
X101464964Y-86906260D01*
X101469728Y-86902541D01*
X101770424Y-86679530D01*
X101775370Y-86676048D01*
X101780425Y-86672672D01*
X101785549Y-86669428D01*
X102106637Y-86476975D01*
X102111826Y-86474034D01*
X102112701Y-86473566D01*
X102181098Y-86459323D01*
X102193499Y-86460954D01*
G37*
%TD.AperFunction*%
%TD*%
M02*
