%TF.GenerationSoftware,KiCad,Pcbnew,10.0.4*%
%TF.CreationDate,2026-07-12T12:48:28+10:00*%
%TF.ProjectId,hotglue-beetle-screw-switch,686f7467-6c75-4652-9d62-6565746c652d,rev?*%
%TF.SameCoordinates,Original*%
%TF.FileFunction,Legend,Top*%
%TF.FilePolarity,Positive*%
%FSLAX46Y46*%
G04 Gerber Fmt 4.6, Leading zero omitted, Abs format (unit mm)*
G04 Created by KiCad (PCBNEW 10.0.4) date 2026-07-12 12:48:28*
%MOMM*%
%LPD*%
G01*
G04 APERTURE LIST*
%ADD10C,0.200000*%
%ADD11C,0.120000*%
G04 APERTURE END LIST*
D10*
X106119048Y-76071266D02*
X106880953Y-76071266D01*
X106119048Y-86571266D02*
X106880953Y-86571266D01*
X106500000Y-86952219D02*
X106500000Y-86190314D01*
X113119048Y-76071266D02*
X113880953Y-76071266D01*
X113119048Y-86571266D02*
X113880953Y-86571266D01*
X113500000Y-86952219D02*
X113500000Y-86190314D01*
X120119048Y-76071266D02*
X120880953Y-76071266D01*
X120119048Y-86571266D02*
X120880953Y-86571266D01*
X120500000Y-86952219D02*
X120500000Y-86190314D01*
%TO.C,J2*%
D11*
X107290000Y-77490000D02*
X107290000Y-86210000D01*
X108590000Y-75790000D02*
X107290000Y-77490000D01*
X111410000Y-75790000D02*
X108590000Y-75790000D01*
X111410000Y-75790000D02*
X112710000Y-77490000D01*
X112710000Y-77490000D02*
X112710000Y-86210000D01*
X112710000Y-86210000D02*
X107290000Y-86210000D01*
%TO.C,J1*%
X100290000Y-77490000D02*
X100290000Y-86210000D01*
X101590000Y-75790000D02*
X100290000Y-77490000D01*
X104410000Y-75790000D02*
X101590000Y-75790000D01*
X104410000Y-75790000D02*
X105710000Y-77490000D01*
X105710000Y-77490000D02*
X105710000Y-86210000D01*
X105710000Y-86210000D02*
X100290000Y-86210000D01*
%TO.C,J3*%
X114290000Y-77490000D02*
X114290000Y-86210000D01*
X115590000Y-75790000D02*
X114290000Y-77490000D01*
X118410000Y-75790000D02*
X115590000Y-75790000D01*
X118410000Y-75790000D02*
X119710000Y-77490000D01*
X119710000Y-77490000D02*
X119710000Y-86210000D01*
X119710000Y-86210000D02*
X114290000Y-86210000D01*
%TO.C,J4*%
X121290000Y-77490000D02*
X121290000Y-86210000D01*
X122590000Y-75790000D02*
X121290000Y-77490000D01*
X125410000Y-75790000D02*
X122590000Y-75790000D01*
X125410000Y-75790000D02*
X126710000Y-77490000D01*
X126710000Y-77490000D02*
X126710000Y-86210000D01*
X126710000Y-86210000D02*
X121290000Y-86210000D01*
%TD*%
M02*
