%TF.GenerationSoftware,KiCad,Pcbnew,10.0.4*%
%TF.CreationDate,2026-07-12T12:48:27+10:00*%
%TF.ProjectId,hotglue-beetle-screw-switch,686f7467-6c75-4652-9d62-6565746c652d,rev?*%
%TF.SameCoordinates,Original*%
%TF.FileFunction,Copper,L2,Bot*%
%TF.FilePolarity,Positive*%
%FSLAX46Y46*%
G04 Gerber Fmt 4.6, Leading zero omitted, Abs format (unit mm)*
G04 Created by KiCad (PCBNEW 10.0.4) date 2026-07-12 12:48:27*
%MOMM*%
%LPD*%
G01*
G04 APERTURE LIST*
G04 Aperture macros list*
%AMRoundRect*
0 Rectangle with rounded corners*
0 $1 Rounding radius*
0 $2 $3 $4 $5 $6 $7 $8 $9 X,Y pos of 4 corners*
0 Add a 4 corners polygon primitive as box body*
4,1,4,$2,$3,$4,$5,$6,$7,$8,$9,$2,$3,0*
0 Add four circle primitives for the rounded corners*
1,1,$1+$1,$2,$3*
1,1,$1+$1,$4,$5*
1,1,$1+$1,$6,$7*
1,1,$1+$1,$8,$9*
0 Add four rect primitives between the rounded corners*
20,1,$1+$1,$2,$3,$4,$5,0*
20,1,$1+$1,$4,$5,$6,$7,0*
20,1,$1+$1,$6,$7,$8,$9,0*
20,1,$1+$1,$8,$9,$2,$3,0*%
%AMFreePoly0*
4,1,120,-2.407097,3.659953,-2.050973,3.589116,-1.703508,3.483713,-1.368046,3.344760,-1.047820,3.173596,-0.745913,2.971868,-0.465232,2.741519,-0.208481,2.484768,0.021868,2.204087,0.223596,1.902180,0.394760,1.581954,0.533713,1.246492,0.639116,0.899027,0.709953,0.542903,0.745543,0.181550,0.745543,0.077766,0.746389,0.073513,0.746389,-0.073513,0.745543,-0.077766,0.745543,-0.181550,
0.709953,-0.542903,0.639116,-0.899027,0.533713,-1.246492,0.394760,-1.581954,0.223596,-1.902180,0.021868,-2.204087,-0.208481,-2.484768,-0.465232,-2.741519,-0.745913,-2.971868,-1.047820,-3.173596,-1.368046,-3.344760,-1.703508,-3.483713,-2.050973,-3.589116,-2.407097,-3.659953,-2.768450,-3.695543,-3.131550,-3.695543,-3.492903,-3.659953,-3.849027,-3.589116,-4.196492,-3.483713,-4.531954,-3.344760,
-4.852180,-3.173596,-5.154087,-2.971868,-5.434768,-2.741519,-5.691519,-2.484768,-5.921868,-2.204087,-6.123596,-1.902180,-6.294760,-1.581954,-6.433713,-1.246492,-6.539116,-0.899027,-6.609953,-0.542903,-6.645543,-0.181550,-6.645543,0.144196,-5.150000,0.144196,-5.150000,-0.144196,-5.112357,-0.430120,-5.037716,-0.708684,-4.927353,-0.975123,-4.783158,-1.224877,-4.607596,-1.453673,-4.403673,-1.657596,
-4.174877,-1.833158,-3.925123,-1.977353,-3.658684,-2.087716,-3.380120,-2.162357,-3.094196,-2.200000,-2.805804,-2.200000,-2.519880,-2.162357,-2.241316,-2.087716,-1.974877,-1.977353,-1.725123,-1.833158,-1.496327,-1.657596,-1.292404,-1.453673,-1.116842,-1.224877,-0.972647,-0.975123,-0.862284,-0.708684,-0.787643,-0.430120,-0.750000,-0.144196,-0.750000,0.144196,-0.787643,0.430120,-0.862284,0.708684,
-0.972647,0.975123,-1.116842,1.224877,-1.292404,1.453673,-1.496327,1.657596,-1.725123,1.833158,-1.974877,1.977353,-2.241316,2.087716,-2.519880,2.162357,-2.805804,2.200000,-3.094196,2.200000,-3.380120,2.162357,-3.658684,2.087716,-3.925123,1.977353,-4.174877,1.833158,-4.403673,1.657596,-4.607596,1.453673,-4.783158,1.224877,-4.927353,0.975123,-5.037716,0.708684,-5.112357,0.430120,
-5.150000,0.144196,-6.645543,0.144196,-6.645543,0.181550,-6.609953,0.542903,-6.539116,0.899027,-6.433713,1.246492,-6.294760,1.581954,-6.123596,1.902180,-5.921868,2.204087,-5.691519,2.484768,-5.434768,2.741519,-5.154087,2.971868,-4.852180,3.173596,-4.531954,3.344760,-4.196492,3.483713,-3.849027,3.589116,-3.492903,3.659953,-3.131550,3.695543,-2.768450,3.695543,-2.407097,3.659953,
-2.407097,3.659953,$1*%
G04 Aperture macros list end*
%TA.AperFunction,ComponentPad*%
%ADD10RoundRect,0.760000X-1.140000X1.140000X-1.140000X-1.140000X1.140000X-1.140000X1.140000X1.140000X0*%
%TD*%
%TA.AperFunction,ComponentPad*%
%ADD11C,4.000000*%
%TD*%
%TA.AperFunction,ComponentPad*%
%ADD12C,3.800000*%
%TD*%
%TA.AperFunction,SMDPad,CuDef*%
%ADD13RoundRect,0.237500X-0.250000X-0.237500X0.250000X-0.237500X0.250000X0.237500X-0.250000X0.237500X0*%
%TD*%
%TA.AperFunction,SMDPad,CuDef*%
%ADD14RoundRect,0.237500X0.287500X0.237500X-0.287500X0.237500X-0.287500X-0.237500X0.287500X-0.237500X0*%
%TD*%
%TA.AperFunction,SMDPad,CuDef*%
%ADD15C,0.992000*%
%TD*%
%TA.AperFunction,SMDPad,CuDef*%
%ADD16FreePoly0,180.000000*%
%TD*%
%TA.AperFunction,ViaPad*%
%ADD17C,1.000000*%
%TD*%
%TA.AperFunction,Conductor*%
%ADD18C,1.000000*%
%TD*%
G04 APERTURE END LIST*
D10*
%TO.P,J2,1,Pin_1_1*%
%TO.N,-BATT*%
X110000000Y-78500000D03*
D11*
%TO.P,J2,2,Pin_2_2*%
%TO.N,/BATT SWITCH*%
X110000000Y-83500000D03*
%TD*%
D10*
%TO.P,J1,1,Pin_1_1*%
%TO.N,-BATT*%
X103000000Y-78500000D03*
D12*
%TO.P,J1,2,Pin_2_2*%
%TO.N,+BATT*%
X103000000Y-83500000D03*
%TD*%
D10*
%TO.P,J3,1,Pin_1_1*%
%TO.N,-BATT*%
X117000000Y-78500000D03*
D11*
%TO.P,J3,2,Pin_2_2*%
%TO.N,/BATT SWITCH*%
X117000000Y-83500000D03*
%TD*%
D10*
%TO.P,J4,1,Pin_1_1*%
%TO.N,-BATT*%
X124000000Y-78500000D03*
D11*
%TO.P,J4,2,Pin_2_2*%
%TO.N,/BATT SWITCH*%
X124000000Y-83500000D03*
%TD*%
D13*
%TO.P,R1,1*%
%TO.N,Net-(D1-K)*%
X116087500Y-95000000D03*
%TO.P,R1,2*%
%TO.N,-BATT*%
X117912500Y-95000000D03*
%TD*%
%TO.P,R2,1*%
%TO.N,Net-(D2-K)*%
X116175000Y-89000000D03*
%TO.P,R2,2*%
%TO.N,-BATT*%
X118000000Y-89000000D03*
%TD*%
D14*
%TO.P,D2,1,K_1*%
%TO.N,Net-(D2-K)*%
X113875000Y-89000000D03*
%TO.P,D2,2,A_2*%
%TO.N,/BATT SWITCH*%
X112125000Y-89000000D03*
%TD*%
D15*
%TO.P,H1,1,1_1*%
%TO.N,+BATT*%
X108950000Y-92000000D03*
X106000000Y-94950000D03*
X106000000Y-89050000D03*
D16*
X103050000Y-92000000D03*
%TD*%
D14*
%TO.P,D1,1,K_1*%
%TO.N,Net-(D1-K)*%
X113875000Y-95000000D03*
%TO.P,D1,2,A_2*%
%TO.N,/BATT SWITCH*%
X112125000Y-95000000D03*
%TD*%
D17*
%TO.N,-BATT*%
X118000000Y-88000000D03*
X118000000Y-96000000D03*
X125000000Y-96000000D03*
X125000000Y-88000000D03*
%TO.N,/BATT SWITCH*%
X112000000Y-91000000D03*
X112000000Y-93000000D03*
%TD*%
%TO.N,-BATT*%
D18*
X117912500Y-95000000D02*
X117912500Y-95912500D01*
X117912500Y-95912500D02*
X118000000Y-96000000D01*
X118000000Y-89000000D02*
X118000000Y-88000000D01*
%TO.N,Net-(D1-K)*%
X113875000Y-95000000D02*
X116087500Y-95000000D01*
%TO.N,Net-(D2-K)*%
X113875000Y-89000000D02*
X116175000Y-89000000D01*
%TD*%
%TA.AperFunction,Conductor*%
%TO.N,+BATT*%
G36*
X102193499Y-81460954D02*
G01*
X102229901Y-81467626D01*
X102289933Y-81476763D01*
X102304797Y-81478568D01*
X102365295Y-81484066D01*
X102685550Y-81503439D01*
X102715926Y-81504816D01*
X102723413Y-81505042D01*
X102753751Y-81505500D01*
X106620943Y-81505500D01*
X106640713Y-81511305D01*
X106661300Y-81512251D01*
X106684502Y-81524163D01*
X106687982Y-81525185D01*
X106692698Y-81528371D01*
X106861947Y-81648460D01*
X106867489Y-81652629D01*
X106872918Y-81656957D01*
X106878249Y-81661459D01*
X106896475Y-81677747D01*
X106896476Y-81677747D01*
X107113541Y-81871728D01*
X107118595Y-81876507D01*
X107123489Y-81881401D01*
X107128267Y-81886455D01*
X107151142Y-81912052D01*
X107151143Y-81912052D01*
X107268128Y-82042958D01*
X107287662Y-82072357D01*
X107294371Y-82086473D01*
X107297177Y-82104077D01*
X107304830Y-82120177D01*
X107305371Y-82155467D01*
X107303640Y-82168971D01*
X107292366Y-82207007D01*
X107223534Y-82349937D01*
X107112226Y-82668036D01*
X107112222Y-82668048D01*
X107037231Y-82996607D01*
X106999500Y-83331486D01*
X106999500Y-83668512D01*
X107037231Y-84003391D01*
X107112223Y-84331952D01*
X107112227Y-84331968D01*
X107112234Y-84331989D01*
X107223529Y-84650047D01*
X107223535Y-84650061D01*
X107369751Y-84953681D01*
X107369955Y-84954039D01*
X107370641Y-84955098D01*
X107549054Y-85239039D01*
X107705811Y-85435606D01*
X107759174Y-85502522D01*
X107951074Y-85694422D01*
X107972223Y-85722673D01*
X107984831Y-85745762D01*
X108000000Y-85805191D01*
X108000000Y-87000000D01*
X109241879Y-87000000D01*
X109247284Y-87000118D01*
X109252693Y-87000354D01*
X109258085Y-87000707D01*
X109450861Y-87017572D01*
X109461562Y-87018980D01*
X109472219Y-87020859D01*
X109482755Y-87023195D01*
X109543840Y-87039563D01*
X109661835Y-87071179D01*
X109672127Y-87074424D01*
X109682275Y-87078118D01*
X109692251Y-87082250D01*
X109860274Y-87160600D01*
X109869858Y-87165590D01*
X109879196Y-87170981D01*
X109888315Y-87176791D01*
X110040162Y-87283115D01*
X110048744Y-87289700D01*
X110057009Y-87296635D01*
X110064985Y-87303944D01*
X110196054Y-87435013D01*
X110203363Y-87442989D01*
X110210298Y-87451254D01*
X110216879Y-87459830D01*
X110323206Y-87611680D01*
X110329013Y-87620797D01*
X110334411Y-87630147D01*
X110339405Y-87639740D01*
X110417740Y-87807729D01*
X110421879Y-87817721D01*
X110425571Y-87827864D01*
X110428825Y-87838184D01*
X110476801Y-88017237D01*
X110479142Y-88027798D01*
X110481014Y-88038415D01*
X110482426Y-88049140D01*
X110499291Y-88241905D01*
X110499644Y-88247282D01*
X110499881Y-88252689D01*
X110500000Y-88258119D01*
X110500000Y-90868254D01*
X110499903Y-90873146D01*
X110499712Y-90877984D01*
X110499537Y-90880958D01*
X110499500Y-90881907D01*
X110499500Y-91118090D01*
X110499537Y-91119050D01*
X110499711Y-91121995D01*
X110499903Y-91126853D01*
X110500000Y-91131750D01*
X110500000Y-91995918D01*
X110499970Y-91998626D01*
X110499910Y-92001373D01*
X110499822Y-92004074D01*
X110481327Y-92427666D01*
X110480973Y-92433068D01*
X110480501Y-92438461D01*
X110479912Y-92443835D01*
X110425098Y-92860188D01*
X110424275Y-92865537D01*
X110423339Y-92870845D01*
X110422284Y-92876150D01*
X110331381Y-93286186D01*
X110330095Y-93291439D01*
X110328702Y-93296638D01*
X110327188Y-93301833D01*
X110200902Y-93702363D01*
X110199164Y-93707484D01*
X110197321Y-93712548D01*
X110195359Y-93717593D01*
X110034647Y-94105584D01*
X110032471Y-94110530D01*
X110030178Y-94115448D01*
X110027782Y-94120306D01*
X109833873Y-94492802D01*
X109831273Y-94497542D01*
X109828570Y-94502224D01*
X109825761Y-94506852D01*
X109600130Y-94861020D01*
X109597121Y-94865524D01*
X109594011Y-94869965D01*
X109590816Y-94874322D01*
X109335159Y-95207502D01*
X109331767Y-95211728D01*
X109328296Y-95215864D01*
X109324734Y-95219925D01*
X109041019Y-95529546D01*
X109037278Y-95533454D01*
X109033454Y-95537278D01*
X109029546Y-95541019D01*
X108719925Y-95824734D01*
X108715864Y-95828296D01*
X108711728Y-95831767D01*
X108707502Y-95835159D01*
X108374322Y-96090816D01*
X108369965Y-96094011D01*
X108365524Y-96097121D01*
X108361020Y-96100130D01*
X108006852Y-96325761D01*
X108002224Y-96328570D01*
X107997542Y-96331273D01*
X107992802Y-96333873D01*
X107714813Y-96478585D01*
X107687031Y-96489042D01*
X107658816Y-96495946D01*
X107629345Y-96499500D01*
X102870655Y-96499500D01*
X102841182Y-96495946D01*
X102812968Y-96489042D01*
X102785186Y-96478585D01*
X102711034Y-96439984D01*
X102507200Y-96333874D01*
X102502458Y-96331273D01*
X102497771Y-96328567D01*
X102493145Y-96325760D01*
X102437676Y-96290422D01*
X102316059Y-96212943D01*
X102138962Y-96100119D01*
X102134468Y-96097116D01*
X102132231Y-96095550D01*
X102130030Y-96094009D01*
X102125676Y-96090816D01*
X101941013Y-95949119D01*
X101792485Y-95835150D01*
X101788291Y-95831784D01*
X101784121Y-95828284D01*
X101780073Y-95824734D01*
X101470452Y-95541019D01*
X101466544Y-95537278D01*
X101462720Y-95533454D01*
X101458979Y-95529546D01*
X101175264Y-95219925D01*
X101171716Y-95215881D01*
X101168210Y-95211702D01*
X101164853Y-95207519D01*
X100909182Y-94874322D01*
X100905985Y-94869962D01*
X100902878Y-94865525D01*
X100899872Y-94861026D01*
X100886979Y-94840789D01*
X100886978Y-94840787D01*
X100674219Y-94506822D01*
X100671422Y-94502213D01*
X100668725Y-94497542D01*
X100666130Y-94492812D01*
X100666125Y-94492802D01*
X100521412Y-94214808D01*
X100510957Y-94187031D01*
X100504052Y-94158810D01*
X100500500Y-94129342D01*
X100500500Y-91862337D01*
X103899500Y-91862337D01*
X103899500Y-92137661D01*
X103899501Y-92137690D01*
X103935116Y-92408215D01*
X103935117Y-92408221D01*
X103935438Y-92410655D01*
X103935439Y-92410660D01*
X103935440Y-92410666D01*
X103943608Y-92441148D01*
X103943764Y-92441732D01*
X103943765Y-92441734D01*
X104006704Y-92676629D01*
X104006707Y-92676639D01*
X104088259Y-92873520D01*
X104112075Y-92931017D01*
X104112080Y-92931028D01*
X104194861Y-93074407D01*
X104249751Y-93169479D01*
X104249753Y-93169482D01*
X104249754Y-93169483D01*
X104417370Y-93387926D01*
X104417376Y-93387933D01*
X104417384Y-93387941D01*
X104612052Y-93582610D01*
X104612066Y-93582623D01*
X104612072Y-93582628D01*
X104830521Y-93750249D01*
X104983778Y-93838732D01*
X105030979Y-93865984D01*
X105065531Y-93885933D01*
X105067269Y-93887013D01*
X105068693Y-93887803D01*
X105068966Y-93887916D01*
X105068971Y-93887919D01*
X105068976Y-93887921D01*
X105068979Y-93887923D01*
X105323368Y-93993295D01*
X105589334Y-94064560D01*
X105862326Y-94100500D01*
X105862333Y-94100500D01*
X106137667Y-94100500D01*
X106137674Y-94100500D01*
X106410666Y-94064560D01*
X106676632Y-93993295D01*
X106931021Y-93887923D01*
X107169479Y-93750249D01*
X107387928Y-93582628D01*
X107582628Y-93387928D01*
X107750249Y-93169479D01*
X107887923Y-92931021D01*
X107993295Y-92676632D01*
X108064560Y-92410666D01*
X108100500Y-92137674D01*
X108100500Y-91862326D01*
X108064560Y-91589334D01*
X107993295Y-91323368D01*
X107887923Y-91068979D01*
X107887921Y-91068976D01*
X107887919Y-91068971D01*
X107887916Y-91068966D01*
X107887803Y-91068693D01*
X107887015Y-91067273D01*
X107885933Y-91065531D01*
X107782525Y-90886426D01*
X107779917Y-90881908D01*
X107750249Y-90830521D01*
X107681099Y-90740403D01*
X107582629Y-90612073D01*
X107582623Y-90612066D01*
X107387933Y-90417376D01*
X107387926Y-90417370D01*
X107169483Y-90249754D01*
X107169482Y-90249753D01*
X107169479Y-90249751D01*
X107074407Y-90194861D01*
X107073782Y-90194500D01*
X107073753Y-90194483D01*
X106931037Y-90112085D01*
X106931020Y-90112076D01*
X106676630Y-90006704D01*
X106543649Y-89971072D01*
X106543648Y-89971071D01*
X106410667Y-89935440D01*
X106410663Y-89935439D01*
X106410657Y-89935438D01*
X106141774Y-89900039D01*
X106139758Y-89899705D01*
X106137684Y-89899500D01*
X106137679Y-89899500D01*
X106137674Y-89899500D01*
X105862326Y-89899500D01*
X105862320Y-89899500D01*
X105862315Y-89899500D01*
X105860238Y-89899705D01*
X105858224Y-89900039D01*
X105589365Y-89935435D01*
X105589333Y-89935439D01*
X105587524Y-89935866D01*
X105585735Y-89936404D01*
X105533126Y-89950499D01*
X105533125Y-89950500D01*
X105393287Y-89987969D01*
X105323368Y-90006704D01*
X105068978Y-90112076D01*
X105068970Y-90112080D01*
X104830516Y-90249754D01*
X104830507Y-90249760D01*
X104612072Y-90417371D01*
X104612065Y-90417377D01*
X104612057Y-90417384D01*
X104417384Y-90612057D01*
X104417377Y-90612065D01*
X104417376Y-90612066D01*
X104417370Y-90612073D01*
X104417356Y-90612091D01*
X104249760Y-90830507D01*
X104249754Y-90830516D01*
X104112080Y-91068970D01*
X104112076Y-91068978D01*
X104006707Y-91323359D01*
X104006704Y-91323369D01*
X103935444Y-91589315D01*
X103935439Y-91589340D01*
X103935436Y-91589353D01*
X103899501Y-91862308D01*
X103899500Y-91862337D01*
X100500500Y-91862337D01*
X100500500Y-83118545D01*
X100504990Y-83085477D01*
X100513651Y-83054180D01*
X100526798Y-83023512D01*
X100669432Y-82785542D01*
X100672672Y-82780425D01*
X100673092Y-82779795D01*
X100676048Y-82775370D01*
X100679530Y-82770424D01*
X100902541Y-82469728D01*
X100906260Y-82464964D01*
X100910134Y-82460244D01*
X100914069Y-82455682D01*
X101165475Y-82178299D01*
X101169632Y-82173933D01*
X101173933Y-82169632D01*
X101178299Y-82165475D01*
X101455682Y-81914069D01*
X101460244Y-81910134D01*
X101464964Y-81906260D01*
X101469728Y-81902541D01*
X101770424Y-81679530D01*
X101775370Y-81676048D01*
X101780425Y-81672672D01*
X101785549Y-81669428D01*
X102106637Y-81476975D01*
X102111826Y-81474034D01*
X102112701Y-81473566D01*
X102181098Y-81459323D01*
X102193499Y-81460954D01*
G37*
%TD.AperFunction*%
%TD*%
%TA.AperFunction,Conductor*%
%TO.N,/BATT SWITCH*%
G36*
X117163835Y-81505049D02*
G01*
X117179900Y-81505500D01*
X123820095Y-81505500D01*
X123820098Y-81505500D01*
X123829900Y-81505224D01*
X123836158Y-81505048D01*
X123839637Y-81505000D01*
X124160355Y-81505000D01*
X124163835Y-81505049D01*
X124179900Y-81505500D01*
X124179905Y-81505500D01*
X124950411Y-81505500D01*
X125017450Y-81525185D01*
X125063205Y-81577989D01*
X125064697Y-81581388D01*
X125120327Y-81713532D01*
X125153815Y-81774861D01*
X125196749Y-81846282D01*
X125196755Y-81846290D01*
X125315083Y-81991409D01*
X125325325Y-82003969D01*
X125484975Y-82163619D01*
X125494241Y-82173987D01*
X125625263Y-82338284D01*
X125633310Y-82349625D01*
X125745118Y-82527565D01*
X125751844Y-82539735D01*
X125843019Y-82729061D01*
X125848341Y-82741909D01*
X125917752Y-82940278D01*
X125921601Y-82953639D01*
X125968360Y-83158504D01*
X125970689Y-83172213D01*
X125994220Y-83381043D01*
X125995000Y-83394927D01*
X125995000Y-83605071D01*
X125994220Y-83618955D01*
X125970689Y-83827785D01*
X125968360Y-83841494D01*
X125921601Y-84046359D01*
X125917752Y-84059720D01*
X125848341Y-84258089D01*
X125843019Y-84270937D01*
X125751844Y-84460263D01*
X125745118Y-84472433D01*
X125633310Y-84650373D01*
X125625267Y-84661708D01*
X125625263Y-84661714D01*
X125494244Y-84826007D01*
X125484979Y-84836375D01*
X125325321Y-84996034D01*
X125253383Y-85076122D01*
X125236760Y-85096751D01*
X125236751Y-85096763D01*
X125131694Y-85255969D01*
X125131693Y-85255971D01*
X125054914Y-85444388D01*
X125035233Y-85511416D01*
X125015082Y-85592307D01*
X124994500Y-85794708D01*
X124994500Y-85870500D01*
X124974815Y-85937539D01*
X124922011Y-85983294D01*
X124870500Y-85994500D01*
X118502706Y-85994500D01*
X118498750Y-85994542D01*
X118480974Y-85994734D01*
X118477348Y-85994813D01*
X118475553Y-85994852D01*
X118474096Y-85994899D01*
X118453443Y-85995573D01*
X118025741Y-86014247D01*
X117981872Y-86017125D01*
X117971138Y-86018065D01*
X117927637Y-86022832D01*
X117505874Y-86078357D01*
X117462645Y-86085007D01*
X117452036Y-86086877D01*
X117452017Y-86086880D01*
X117452010Y-86086882D01*
X117408859Y-86095463D01*
X116993543Y-86187537D01*
X116993527Y-86187541D01*
X116950865Y-86197981D01*
X116940459Y-86200769D01*
X116898396Y-86213031D01*
X116492711Y-86340942D01*
X116451114Y-86355063D01*
X116440973Y-86358755D01*
X116400148Y-86374631D01*
X116336450Y-86401016D01*
X116336429Y-86401026D01*
X116238018Y-86448201D01*
X116238013Y-86448204D01*
X116223402Y-86456211D01*
X116220876Y-86457595D01*
X116214465Y-86461108D01*
X116214431Y-86461129D01*
X116213193Y-86461971D01*
X116206797Y-86466037D01*
X116177641Y-86483342D01*
X116158075Y-86495260D01*
X116117852Y-86526466D01*
X116117851Y-86526465D01*
X116114744Y-86528875D01*
X116055719Y-86568990D01*
X116032153Y-86592954D01*
X116025578Y-86598056D01*
X116025574Y-86598061D01*
X115997327Y-86619977D01*
X115997323Y-86619981D01*
X115944315Y-86681868D01*
X115938555Y-86688142D01*
X115913060Y-86714069D01*
X115910253Y-86717575D01*
X115910226Y-86717609D01*
X115880176Y-86755102D01*
X115880101Y-86755221D01*
X115879733Y-86755690D01*
X115869131Y-86768930D01*
X115867882Y-86770783D01*
X115865419Y-86773922D01*
X115864978Y-86774493D01*
X115856737Y-86786362D01*
X115856701Y-86786390D01*
X115829352Y-86825800D01*
X115827551Y-86828594D01*
X115827459Y-86828530D01*
X115824965Y-86832124D01*
X115822249Y-86836823D01*
X115822234Y-86836848D01*
X115817191Y-86845578D01*
X115812692Y-86852783D01*
X115776264Y-86906909D01*
X115776263Y-86906909D01*
X115768338Y-86925232D01*
X115723655Y-86978945D01*
X115657025Y-86999975D01*
X115654530Y-87000000D01*
X113500000Y-87000000D01*
X113500000Y-87394108D01*
X113499999Y-87394114D01*
X113500000Y-87394117D01*
X113494975Y-87429052D01*
X113490570Y-87444050D01*
X113452802Y-87502816D01*
X113447488Y-87507421D01*
X113395350Y-87533241D01*
X113395582Y-87534160D01*
X113176975Y-87589244D01*
X113176954Y-87589251D01*
X112974071Y-87681404D01*
X112974069Y-87681406D01*
X112974066Y-87681407D01*
X112790885Y-87808315D01*
X112633315Y-87965885D01*
X112506407Y-88149066D01*
X112506406Y-88149069D01*
X112506404Y-88149071D01*
X112414251Y-88351954D01*
X112414243Y-88351978D01*
X112414242Y-88351979D01*
X112359800Y-88568038D01*
X112359800Y-88568039D01*
X112359799Y-88568045D01*
X112349500Y-88698904D01*
X112349500Y-89301094D01*
X112359799Y-89431953D01*
X112359800Y-89431959D01*
X112359800Y-89431960D01*
X112414242Y-89648019D01*
X112414243Y-89648020D01*
X112414251Y-89648044D01*
X112506404Y-89850927D01*
X112506406Y-89850930D01*
X112506407Y-89850932D01*
X112633315Y-90034113D01*
X112730062Y-90130860D01*
X112763547Y-90192183D01*
X112758563Y-90261875D01*
X112756265Y-90267597D01*
X112748832Y-90284850D01*
X112713021Y-90398427D01*
X112700768Y-90440462D01*
X112697971Y-90450898D01*
X112687543Y-90493512D01*
X112595463Y-90908860D01*
X112586877Y-90952036D01*
X112585007Y-90962645D01*
X112578357Y-91005874D01*
X112522832Y-91427637D01*
X112518065Y-91471138D01*
X112517125Y-91481872D01*
X112514248Y-91525742D01*
X112501467Y-91818478D01*
X112496676Y-91928224D01*
X112496676Y-91928226D01*
X112495691Y-91950761D01*
X112494736Y-91994568D01*
X112494736Y-92005427D01*
X112495691Y-92049239D01*
X112514248Y-92474269D01*
X112517118Y-92518049D01*
X112518064Y-92528849D01*
X112522833Y-92572370D01*
X112578354Y-92994104D01*
X112585007Y-93037348D01*
X112586890Y-93048033D01*
X112595456Y-93091108D01*
X112687535Y-93506449D01*
X112697976Y-93549111D01*
X112700773Y-93559550D01*
X112713036Y-93601616D01*
X112748828Y-93715137D01*
X112758158Y-93741834D01*
X112761690Y-93811614D01*
X112728781Y-93870419D01*
X112633318Y-93965882D01*
X112633308Y-93965895D01*
X112506407Y-94149066D01*
X112506406Y-94149069D01*
X112506404Y-94149071D01*
X112414251Y-94351954D01*
X112414243Y-94351978D01*
X112414242Y-94351979D01*
X112359800Y-94568038D01*
X112359800Y-94568039D01*
X112359799Y-94568045D01*
X112349500Y-94698904D01*
X112349500Y-95301094D01*
X112359799Y-95431953D01*
X112359800Y-95431959D01*
X112359800Y-95431960D01*
X112414242Y-95648019D01*
X112414243Y-95648020D01*
X112414251Y-95648044D01*
X112506404Y-95850927D01*
X112506406Y-95850930D01*
X112506407Y-95850932D01*
X112633312Y-96034109D01*
X112633314Y-96034111D01*
X112633315Y-96034112D01*
X112790887Y-96191684D01*
X112790891Y-96191687D01*
X112790895Y-96191690D01*
X112894429Y-96263419D01*
X112904736Y-96275546D01*
X112916251Y-96282696D01*
X112920278Y-96287434D01*
X112927384Y-96296232D01*
X112932231Y-96307897D01*
X112935792Y-96312087D01*
X112940621Y-96322240D01*
X112942138Y-96331739D01*
X112954194Y-96360753D01*
X112950268Y-96382647D01*
X112951640Y-96391235D01*
X112946711Y-96402486D01*
X112941864Y-96429526D01*
X112928623Y-96443782D01*
X112923607Y-96455235D01*
X112908912Y-96465004D01*
X112894331Y-96480705D01*
X112892054Y-96482060D01*
X112877057Y-96486184D01*
X112865424Y-96493919D01*
X112847945Y-96494190D01*
X112828642Y-96499500D01*
X111337029Y-96499500D01*
X111327445Y-96498121D01*
X111327431Y-96498398D01*
X111323220Y-96498180D01*
X111314899Y-96496317D01*
X111302087Y-96494475D01*
X111298900Y-96493539D01*
X111299121Y-96492785D01*
X111282641Y-96489097D01*
X111279796Y-96487932D01*
X111276766Y-96486870D01*
X111277004Y-96486189D01*
X111265900Y-96479357D01*
X111251898Y-96475836D01*
X111224344Y-96453791D01*
X111223642Y-96453043D01*
X111212535Y-96439364D01*
X111176790Y-96388314D01*
X111170981Y-96379196D01*
X111165590Y-96369858D01*
X111160598Y-96360269D01*
X111082250Y-96192251D01*
X111078120Y-96182280D01*
X111074421Y-96172116D01*
X111071174Y-96161816D01*
X111023197Y-95982759D01*
X111020859Y-95972217D01*
X111018980Y-95961561D01*
X111017572Y-95950858D01*
X111008829Y-95850927D01*
X111000707Y-95758085D01*
X111000354Y-95752692D01*
X111000118Y-95747282D01*
X111000000Y-95741878D01*
X111000000Y-94427178D01*
X111009439Y-94379725D01*
X111020937Y-94351966D01*
X111124319Y-94102383D01*
X111132486Y-94082042D01*
X111134448Y-94076997D01*
X111142191Y-94056425D01*
X111144034Y-94051361D01*
X111151322Y-94030634D01*
X111153060Y-94025513D01*
X111159865Y-94004721D01*
X111286151Y-93604191D01*
X111292528Y-93583166D01*
X111294042Y-93577971D01*
X111299944Y-93556869D01*
X111301337Y-93551670D01*
X111306754Y-93530537D01*
X111308040Y-93525284D01*
X111313047Y-93503817D01*
X111403950Y-93093781D01*
X111408472Y-93072272D01*
X111409527Y-93066967D01*
X111413561Y-93045458D01*
X111414497Y-93040150D01*
X111418081Y-93018444D01*
X111418904Y-93013095D01*
X111421996Y-92991432D01*
X111476810Y-92575079D01*
X111479427Y-92553384D01*
X111480016Y-92548010D01*
X111482172Y-92526128D01*
X111482644Y-92520735D01*
X111484321Y-92498819D01*
X111484675Y-92493417D01*
X111485870Y-92471527D01*
X111504365Y-92047935D01*
X111504789Y-92036816D01*
X111504877Y-92034115D01*
X111505170Y-92023330D01*
X111505230Y-92020583D01*
X111505408Y-92009765D01*
X111505438Y-92007057D01*
X111505500Y-91995918D01*
X111505500Y-91131750D01*
X111505303Y-91111837D01*
X111505206Y-91106940D01*
X111505054Y-91101812D01*
X111505000Y-91098139D01*
X111505000Y-90901846D01*
X111505054Y-90898171D01*
X111505205Y-90893079D01*
X111505302Y-90888187D01*
X111505500Y-90868254D01*
X111505500Y-88258119D01*
X111505259Y-88236088D01*
X111505140Y-88230658D01*
X111504416Y-88208658D01*
X111504179Y-88203251D01*
X111502984Y-88181413D01*
X111502631Y-88176036D01*
X111500965Y-88154269D01*
X111484100Y-87961504D01*
X111479323Y-87917893D01*
X111477911Y-87907168D01*
X111471239Y-87863818D01*
X111469367Y-87853201D01*
X111460814Y-87810196D01*
X111458473Y-87799635D01*
X111448041Y-87757000D01*
X111400065Y-87577947D01*
X111387784Y-87535814D01*
X111384530Y-87525494D01*
X111370424Y-87483942D01*
X111366732Y-87473799D01*
X111350834Y-87432919D01*
X111346695Y-87422927D01*
X111329032Y-87382784D01*
X111250697Y-87214795D01*
X111231287Y-87175437D01*
X111226293Y-87165844D01*
X111224772Y-87163071D01*
X111205212Y-87127417D01*
X111199829Y-87118093D01*
X111177073Y-87080589D01*
X111171298Y-87071524D01*
X111171285Y-87071503D01*
X111146862Y-87034947D01*
X111146855Y-87034937D01*
X111146845Y-87034922D01*
X111040536Y-86883098D01*
X111014583Y-86847703D01*
X111007988Y-86839109D01*
X110980569Y-86804947D01*
X110973633Y-86796681D01*
X110964608Y-86786390D01*
X110944680Y-86763666D01*
X110942231Y-86760994D01*
X110937390Y-86755710D01*
X110936808Y-86755102D01*
X110907050Y-86724017D01*
X110775981Y-86592948D01*
X110744308Y-86562627D01*
X110744305Y-86562624D01*
X110744287Y-86562607D01*
X110736347Y-86555332D01*
X110736332Y-86555318D01*
X110706165Y-86528862D01*
X110703311Y-86526359D01*
X110695071Y-86519445D01*
X110660856Y-86491985D01*
X110660842Y-86491974D01*
X110652260Y-86485389D01*
X110644460Y-86479670D01*
X110616896Y-86459459D01*
X110465039Y-86353129D01*
X110428611Y-86328786D01*
X110419486Y-86322972D01*
X110401594Y-86312115D01*
X110381925Y-86300180D01*
X110372587Y-86294789D01*
X110372586Y-86294788D01*
X110372561Y-86294774D01*
X110334215Y-86273736D01*
X110324629Y-86268745D01*
X110285202Y-86249300D01*
X110117214Y-86170967D01*
X110117204Y-86170962D01*
X110117192Y-86170957D01*
X110077024Y-86153283D01*
X110067048Y-86149151D01*
X110067037Y-86149147D01*
X110067016Y-86149138D01*
X110026213Y-86133270D01*
X110016059Y-86129574D01*
X109974482Y-86115459D01*
X109964202Y-86112218D01*
X109922083Y-86099941D01*
X109742985Y-86051953D01*
X109700421Y-86041537D01*
X109689853Y-86039194D01*
X109646817Y-86030634D01*
X109646812Y-86030633D01*
X109645992Y-86030488D01*
X109636129Y-86028748D01*
X109592776Y-86022077D01*
X109584056Y-86020930D01*
X109582031Y-86020664D01*
X109582022Y-86020663D01*
X109538466Y-86015895D01*
X109345751Y-85999036D01*
X109345745Y-85999035D01*
X109345716Y-85999033D01*
X109334352Y-85998164D01*
X109323789Y-85997356D01*
X109318365Y-85997001D01*
X109296506Y-85995809D01*
X109291139Y-85995574D01*
X109269241Y-85994858D01*
X109263835Y-85994740D01*
X109259346Y-85994691D01*
X109241879Y-85994500D01*
X109241840Y-85994500D01*
X109129500Y-85994500D01*
X109062461Y-85974815D01*
X109016706Y-85922011D01*
X109005500Y-85870500D01*
X109005500Y-85805171D01*
X109004379Y-85757724D01*
X108974264Y-85556514D01*
X108959097Y-85497094D01*
X108959095Y-85497085D01*
X108946271Y-85451374D01*
X108867330Y-85263864D01*
X108854722Y-85240775D01*
X108854710Y-85240756D01*
X108777164Y-85120095D01*
X108777157Y-85120086D01*
X108756018Y-85091848D01*
X108756014Y-85091843D01*
X108756010Y-85091838D01*
X108662070Y-84983426D01*
X108515027Y-84836383D01*
X108505761Y-84826015D01*
X108374731Y-84661708D01*
X108366684Y-84650367D01*
X108254881Y-84472434D01*
X108248155Y-84460264D01*
X108156969Y-84270915D01*
X108151651Y-84258076D01*
X108082252Y-84059749D01*
X108078403Y-84046389D01*
X108038714Y-83872502D01*
X108037636Y-83822560D01*
X108077888Y-83602909D01*
X108079452Y-83595624D01*
X108081250Y-83588330D01*
X108083257Y-83581138D01*
X108141283Y-83394927D01*
X108175358Y-83285573D01*
X108177796Y-83278508D01*
X108180445Y-83271522D01*
X108183314Y-83264596D01*
X108310392Y-82982242D01*
X108313654Y-82975538D01*
X108317139Y-82968898D01*
X108320803Y-82962403D01*
X108334178Y-82940278D01*
X108480999Y-82697406D01*
X108485035Y-82691163D01*
X108489295Y-82684992D01*
X108493695Y-82679011D01*
X108684682Y-82435235D01*
X108689435Y-82429531D01*
X108694443Y-82423878D01*
X108699529Y-82418477D01*
X108918477Y-82199529D01*
X108923878Y-82194443D01*
X108929531Y-82189435D01*
X108935235Y-82184682D01*
X109179011Y-81993695D01*
X109184992Y-81989295D01*
X109191163Y-81985035D01*
X109197406Y-81980999D01*
X109462414Y-81820796D01*
X109468898Y-81817139D01*
X109475538Y-81813654D01*
X109482242Y-81810392D01*
X109764596Y-81683314D01*
X109771516Y-81680447D01*
X109774276Y-81679400D01*
X109778508Y-81677796D01*
X109785573Y-81675358D01*
X110081149Y-81583253D01*
X110088326Y-81581251D01*
X110095631Y-81579450D01*
X110102905Y-81577889D01*
X110407487Y-81522072D01*
X110414828Y-81520955D01*
X110422319Y-81520045D01*
X110429716Y-81519373D01*
X110636631Y-81506857D01*
X110655339Y-81505726D01*
X110662825Y-81505500D01*
X116820098Y-81505500D01*
X116829900Y-81505224D01*
X116836158Y-81505048D01*
X116839637Y-81505000D01*
X117160355Y-81505000D01*
X117163835Y-81505049D01*
G37*
%TD.AperFunction*%
%TD*%
%TA.AperFunction,Conductor*%
%TO.N,-BATT*%
G36*
X125201552Y-75514511D02*
G01*
X125495215Y-75667382D01*
X125504555Y-75672775D01*
X125840787Y-75886978D01*
X125863311Y-75901328D01*
X125872172Y-75907532D01*
X126209645Y-76166484D01*
X126217932Y-76173438D01*
X126531542Y-76460808D01*
X126539191Y-76468457D01*
X126826561Y-76782067D01*
X126833515Y-76790354D01*
X127092467Y-77127827D01*
X127098671Y-77136688D01*
X127327216Y-77495430D01*
X127332625Y-77504798D01*
X127485489Y-77798447D01*
X127499500Y-77855704D01*
X127499500Y-94144294D01*
X127485489Y-94201551D01*
X127332625Y-94495201D01*
X127327216Y-94504569D01*
X127098671Y-94863311D01*
X127092467Y-94872172D01*
X126833515Y-95209645D01*
X126826561Y-95217932D01*
X126539191Y-95531542D01*
X126531542Y-95539191D01*
X126217932Y-95826561D01*
X126209645Y-95833515D01*
X125872172Y-96092467D01*
X125863311Y-96098671D01*
X125504569Y-96327216D01*
X125495201Y-96332625D01*
X125201552Y-96485489D01*
X125144295Y-96499500D01*
X117086531Y-96499500D01*
X117019492Y-96479815D01*
X116973737Y-96427011D01*
X116963793Y-96357853D01*
X116992818Y-96294297D01*
X117015915Y-96273572D01*
X117134112Y-96191684D01*
X117291684Y-96034112D01*
X117305988Y-96013466D01*
X117418592Y-95850933D01*
X117510751Y-95648038D01*
X117565201Y-95431949D01*
X117575500Y-95301084D01*
X117575500Y-95206771D01*
X117577027Y-95187372D01*
X117588000Y-95118096D01*
X117588000Y-94881903D01*
X117577027Y-94812626D01*
X117575500Y-94793227D01*
X117575500Y-94698923D01*
X117575500Y-94698916D01*
X117565201Y-94568051D01*
X117538755Y-94463100D01*
X117510752Y-94351966D01*
X117510751Y-94351963D01*
X117418593Y-94149069D01*
X117418592Y-94149067D01*
X117291684Y-93965887D01*
X117134112Y-93808315D01*
X116950932Y-93681407D01*
X116950930Y-93681406D01*
X116748036Y-93589248D01*
X116748033Y-93589247D01*
X116531957Y-93534800D01*
X116531951Y-93534799D01*
X116401089Y-93524500D01*
X116401084Y-93524500D01*
X116373194Y-93524500D01*
X116353796Y-93522973D01*
X116205597Y-93499500D01*
X116205592Y-93499500D01*
X113826055Y-93499500D01*
X113801841Y-93492390D01*
X113776790Y-93489294D01*
X113768882Y-93482712D01*
X113759016Y-93479815D01*
X113742492Y-93460745D01*
X113723089Y-93444595D01*
X113716345Y-93430570D01*
X113713261Y-93427011D01*
X113707794Y-93412787D01*
X113699955Y-93387926D01*
X113671999Y-93299258D01*
X113669200Y-93288814D01*
X113642745Y-93169483D01*
X113577129Y-92873512D01*
X113575253Y-92862866D01*
X113550735Y-92676630D01*
X113519731Y-92441129D01*
X113518791Y-92430392D01*
X113500236Y-92005405D01*
X113500236Y-91994591D01*
X113506010Y-91862332D01*
X119899500Y-91862332D01*
X119899500Y-92137667D01*
X119899501Y-92137684D01*
X119935438Y-92410655D01*
X119935439Y-92410660D01*
X119935440Y-92410666D01*
X119971072Y-92543649D01*
X120006704Y-92676630D01*
X120112075Y-92931017D01*
X120112080Y-92931028D01*
X120194861Y-93074407D01*
X120249751Y-93169479D01*
X120249753Y-93169482D01*
X120249754Y-93169483D01*
X120417370Y-93387926D01*
X120417376Y-93387933D01*
X120612066Y-93582623D01*
X120612073Y-93582629D01*
X120677437Y-93632784D01*
X120830521Y-93750249D01*
X120983778Y-93838732D01*
X121068971Y-93887919D01*
X121068976Y-93887921D01*
X121068979Y-93887923D01*
X121323368Y-93993295D01*
X121589334Y-94064560D01*
X121862326Y-94100500D01*
X121862333Y-94100500D01*
X122137667Y-94100500D01*
X122137674Y-94100500D01*
X122410666Y-94064560D01*
X122676632Y-93993295D01*
X122931021Y-93887923D01*
X123169479Y-93750249D01*
X123387928Y-93582628D01*
X123582628Y-93387928D01*
X123750249Y-93169479D01*
X123887923Y-92931021D01*
X123993295Y-92676632D01*
X124064560Y-92410666D01*
X124100500Y-92137674D01*
X124100500Y-91862326D01*
X124064560Y-91589334D01*
X123993295Y-91323368D01*
X123887923Y-91068979D01*
X123887921Y-91068976D01*
X123887919Y-91068971D01*
X123838732Y-90983778D01*
X123750249Y-90830521D01*
X123650679Y-90700758D01*
X123582629Y-90612073D01*
X123582623Y-90612066D01*
X123387933Y-90417376D01*
X123387926Y-90417370D01*
X123169483Y-90249754D01*
X123169482Y-90249753D01*
X123169479Y-90249751D01*
X123068904Y-90191684D01*
X122931028Y-90112080D01*
X122931017Y-90112075D01*
X122676630Y-90006704D01*
X122543649Y-89971072D01*
X122410666Y-89935440D01*
X122410660Y-89935439D01*
X122410655Y-89935438D01*
X122137684Y-89899501D01*
X122137679Y-89899500D01*
X122137674Y-89899500D01*
X121862326Y-89899500D01*
X121862320Y-89899500D01*
X121862315Y-89899501D01*
X121589344Y-89935438D01*
X121589337Y-89935439D01*
X121589334Y-89935440D01*
X121533125Y-89950500D01*
X121323369Y-90006704D01*
X121068982Y-90112075D01*
X121068971Y-90112080D01*
X120830516Y-90249754D01*
X120612073Y-90417370D01*
X120612066Y-90417376D01*
X120417376Y-90612066D01*
X120417370Y-90612073D01*
X120249754Y-90830516D01*
X120112080Y-91068971D01*
X120112075Y-91068982D01*
X120006704Y-91323369D01*
X119935441Y-91589331D01*
X119935438Y-91589344D01*
X119899501Y-91862315D01*
X119899500Y-91862332D01*
X113506010Y-91862332D01*
X113518791Y-91569605D01*
X113519731Y-91558872D01*
X113575255Y-91137121D01*
X113577128Y-91126491D01*
X113669203Y-90711169D01*
X113671993Y-90700758D01*
X113707795Y-90587210D01*
X113746727Y-90529195D01*
X113810846Y-90501436D01*
X113826055Y-90500500D01*
X116293097Y-90500500D01*
X116441296Y-90477027D01*
X116460694Y-90475500D01*
X116488576Y-90475500D01*
X116488584Y-90475500D01*
X116619449Y-90465201D01*
X116835538Y-90410751D01*
X117038433Y-90318592D01*
X117221611Y-90191685D01*
X117379185Y-90034111D01*
X117506092Y-89850933D01*
X117598251Y-89648038D01*
X117652701Y-89431949D01*
X117663000Y-89301084D01*
X117663000Y-89206771D01*
X117664527Y-89187372D01*
X117675500Y-89118096D01*
X117675500Y-88881903D01*
X117664527Y-88812626D01*
X117663000Y-88793227D01*
X117663000Y-88698923D01*
X117663000Y-88698916D01*
X117652701Y-88568051D01*
X117598251Y-88351962D01*
X117506092Y-88149067D01*
X117379185Y-87965889D01*
X117379184Y-87965887D01*
X117221612Y-87808315D01*
X117038432Y-87681407D01*
X117038430Y-87681406D01*
X116835536Y-87589248D01*
X116738406Y-87564773D01*
X116711810Y-87549102D01*
X116684210Y-87535287D01*
X116681978Y-87531525D01*
X116678209Y-87529305D01*
X116664307Y-87501744D01*
X116648557Y-87475199D01*
X116648713Y-87470826D01*
X116646743Y-87466921D01*
X116649948Y-87436220D01*
X116651050Y-87405373D01*
X116653544Y-87401779D01*
X116653999Y-87397430D01*
X116673292Y-87373337D01*
X116690898Y-87347981D01*
X116696043Y-87344927D01*
X116697674Y-87342892D01*
X116721248Y-87329973D01*
X116784914Y-87303601D01*
X116795046Y-87299913D01*
X117200746Y-87171997D01*
X117211175Y-87169202D01*
X117626491Y-87077128D01*
X117637121Y-87075255D01*
X118058872Y-87019731D01*
X118069605Y-87018791D01*
X118497297Y-87000117D01*
X118502706Y-87000000D01*
X126000000Y-87000000D01*
X126000000Y-85794710D01*
X126019685Y-85727671D01*
X126036319Y-85707029D01*
X126077205Y-85666143D01*
X126240825Y-85502523D01*
X126450946Y-85239039D01*
X126630246Y-84953686D01*
X126776469Y-84650051D01*
X126887776Y-84331954D01*
X126962767Y-84003394D01*
X127000500Y-83668504D01*
X127000500Y-83331496D01*
X126962767Y-82996606D01*
X126887776Y-82668046D01*
X126776469Y-82349949D01*
X126630246Y-82046314D01*
X126450946Y-81760961D01*
X126240825Y-81497477D01*
X126036319Y-81292971D01*
X126002834Y-81231648D01*
X126000000Y-81205290D01*
X126000000Y-80500000D01*
X124179905Y-80500000D01*
X124171985Y-80499555D01*
X124171978Y-80499695D01*
X124168505Y-80499500D01*
X124168504Y-80499500D01*
X123831496Y-80499500D01*
X123831495Y-80499500D01*
X123828022Y-80499695D01*
X123828014Y-80499555D01*
X123820095Y-80500000D01*
X117179905Y-80500000D01*
X117171985Y-80499555D01*
X117171978Y-80499695D01*
X117168505Y-80499500D01*
X117168504Y-80499500D01*
X116831496Y-80499500D01*
X116831495Y-80499500D01*
X116828022Y-80499695D01*
X116828014Y-80499555D01*
X116820095Y-80500000D01*
X110179905Y-80500000D01*
X110171985Y-80499555D01*
X110171978Y-80499695D01*
X110168505Y-80499500D01*
X110168504Y-80499500D01*
X109831496Y-80499500D01*
X109831495Y-80499500D01*
X109828022Y-80499695D01*
X109828014Y-80499555D01*
X109820095Y-80500000D01*
X102753751Y-80500000D01*
X102746264Y-80499774D01*
X102426009Y-80480401D01*
X102411145Y-80478596D01*
X102099256Y-80421441D01*
X102084717Y-80417857D01*
X101782004Y-80323528D01*
X101768003Y-80318219D01*
X101478850Y-80188082D01*
X101465591Y-80181123D01*
X101194240Y-80017086D01*
X101181917Y-80008580D01*
X101170965Y-80000000D01*
X100932314Y-79813028D01*
X100921106Y-79803098D01*
X100696901Y-79578893D01*
X100686971Y-79567685D01*
X100526889Y-79363355D01*
X100501040Y-79298443D01*
X100500500Y-79286882D01*
X100500500Y-76213117D01*
X100520185Y-76146078D01*
X100526889Y-76136644D01*
X100686978Y-75932305D01*
X100696893Y-75921114D01*
X100921114Y-75696893D01*
X100932305Y-75686978D01*
X101136645Y-75526889D01*
X101201557Y-75501040D01*
X101213118Y-75500500D01*
X125144295Y-75500500D01*
X125201552Y-75514511D01*
G37*
%TD.AperFunction*%
%TD*%
M02*
