%TF.GenerationSoftware,KiCad,Pcbnew,10.0.4*%
%TF.CreationDate,2026-07-11T21:59:25+10:00*%
%TF.ProjectId,hotglue-beetle-screw-switch,686f7467-6c75-4652-9d62-6565746c652d,rev?*%
%TF.SameCoordinates,Original*%
%TF.FileFunction,Legend,Top*%
%TF.FilePolarity,Positive*%
%FSLAX46Y46*%
G04 Gerber Fmt 4.6, Leading zero omitted, Abs format (unit mm)*
G04 Created by KiCad (PCBNEW 10.0.4) date 2026-07-11 21:59:25*
%MOMM*%
%LPD*%
G01*
G04 APERTURE LIST*
G04 Aperture macros list*
%AMRoundRect*
0 Rectangle with rounded corners*
0 $1 Rounding radius*
0 $2 $3 $4 $5 $6 $7 $8 $9 X,Y pos of 4 corners*
0 Add a 4 corners polygon primitive as box body*
4,1,4,$2,$3,$4,$5,$6,$7,$8,$9,$2,$3,0*
0 Add four circle primitives for the rounded corners*
1,1,$1+$1,$2,$3*
1,1,$1+$1,$4,$5*
1,1,$1+$1,$6,$7*
1,1,$1+$1,$8,$9*
0 Add four rect primitives between the rounded corners*
20,1,$1+$1,$2,$3,$4,$5,0*
20,1,$1+$1,$4,$5,$6,$7,0*
20,1,$1+$1,$6,$7,$8,$9,0*
20,1,$1+$1,$8,$9,$2,$3,0*%
%AMFreePoly0*
4,1,120,-2.407097,3.659953,-2.050973,3.589116,-1.703508,3.483713,-1.368046,3.344760,-1.047820,3.173596,-0.745913,2.971868,-0.465232,2.741519,-0.208481,2.484768,0.021868,2.204087,0.223596,1.902180,0.394760,1.581954,0.533713,1.246492,0.639116,0.899027,0.709953,0.542903,0.745543,0.181550,0.745543,0.077766,0.746389,0.073513,0.746389,-0.073513,0.745543,-0.077766,0.745543,-0.181550,
0.709953,-0.542903,0.639116,-0.899027,0.533713,-1.246492,0.394760,-1.581954,0.223596,-1.902180,0.021868,-2.204087,-0.208481,-2.484768,-0.465232,-2.741519,-0.745913,-2.971868,-1.047820,-3.173596,-1.368046,-3.344760,-1.703508,-3.483713,-2.050973,-3.589116,-2.407097,-3.659953,-2.768450,-3.695543,-3.131550,-3.695543,-3.492903,-3.659953,-3.849027,-3.589116,-4.196492,-3.483713,-4.531954,-3.344760,
-4.852180,-3.173596,-5.154087,-2.971868,-5.434768,-2.741519,-5.691519,-2.484768,-5.921868,-2.204087,-6.123596,-1.902180,-6.294760,-1.581954,-6.433713,-1.246492,-6.539116,-0.899027,-6.609953,-0.542903,-6.645543,-0.181550,-6.645543,0.144196,-5.150000,0.144196,-5.150000,-0.144196,-5.112357,-0.430120,-5.037716,-0.708684,-4.927353,-0.975123,-4.783158,-1.224877,-4.607596,-1.453673,-4.403673,-1.657596,
-4.174877,-1.833158,-3.925123,-1.977353,-3.658684,-2.087716,-3.380120,-2.162357,-3.094196,-2.200000,-2.805804,-2.200000,-2.519880,-2.162357,-2.241316,-2.087716,-1.974877,-1.977353,-1.725123,-1.833158,-1.496327,-1.657596,-1.292404,-1.453673,-1.116842,-1.224877,-0.972647,-0.975123,-0.862284,-0.708684,-0.787643,-0.430120,-0.750000,-0.144196,-0.750000,0.144196,-0.787643,0.430120,-0.862284,0.708684,
-0.972647,0.975123,-1.116842,1.224877,-1.292404,1.453673,-1.496327,1.657596,-1.725123,1.833158,-1.974877,1.977353,-2.241316,2.087716,-2.519880,2.162357,-2.805804,2.200000,-3.094196,2.200000,-3.380120,2.162357,-3.658684,2.087716,-3.925123,1.977353,-4.174877,1.833158,-4.403673,1.657596,-4.607596,1.453673,-4.783158,1.224877,-4.927353,0.975123,-5.037716,0.708684,-5.112357,0.430120,
-5.150000,0.144196,-6.645543,0.144196,-6.645543,0.181550,-6.609953,0.542903,-6.539116,0.899027,-6.433713,1.246492,-6.294760,1.581954,-6.123596,1.902180,-5.921868,2.204087,-5.691519,2.484768,-5.434768,2.741519,-5.154087,2.971868,-4.852180,3.173596,-4.531954,3.344760,-4.196492,3.483713,-3.849027,3.589116,-3.492903,3.659953,-3.131550,3.695543,-2.768450,3.695543,-2.407097,3.659953,
-2.407097,3.659953,$1*%
G04 Aperture macros list end*
%ADD10C,0.200000*%
%ADD11C,0.120000*%
%ADD12C,4.400000*%
%ADD13FreePoly0,90.000000*%
%ADD14RoundRect,0.760000X-1.140000X1.140000X-1.140000X-1.140000X1.140000X-1.140000X1.140000X1.140000X0*%
%ADD15C,4.000000*%
%ADD16C,3.800000*%
G04 APERTURE END LIST*
D10*
X113119048Y-81071266D02*
X113880953Y-81071266D01*
X113119048Y-91571266D02*
X113880953Y-91571266D01*
X113500000Y-91952219D02*
X113500000Y-91190314D01*
X120119048Y-91571266D02*
X120880953Y-91571266D01*
X120500000Y-91952219D02*
X120500000Y-91190314D01*
X120119048Y-81071266D02*
X120880953Y-81071266D01*
X106119048Y-81071266D02*
X106880953Y-81071266D01*
X106119048Y-91571266D02*
X106880953Y-91571266D01*
X106500000Y-91952219D02*
X106500000Y-91190314D01*
%TO.C,J2*%
D11*
X107290000Y-82490000D02*
X107290000Y-91210000D01*
X108590000Y-80790000D02*
X107290000Y-82490000D01*
X111410000Y-80790000D02*
X108590000Y-80790000D01*
X111410000Y-80790000D02*
X112710000Y-82490000D01*
X112710000Y-82490000D02*
X112710000Y-91210000D01*
X112710000Y-91210000D02*
X107290000Y-91210000D01*
%TO.C,J1*%
X100290000Y-82490000D02*
X100290000Y-91210000D01*
X101590000Y-80790000D02*
X100290000Y-82490000D01*
X104410000Y-80790000D02*
X101590000Y-80790000D01*
X104410000Y-80790000D02*
X105710000Y-82490000D01*
X105710000Y-82490000D02*
X105710000Y-91210000D01*
X105710000Y-91210000D02*
X100290000Y-91210000D01*
%TO.C,J3*%
X114290000Y-82490000D02*
X114290000Y-91210000D01*
X115590000Y-80790000D02*
X114290000Y-82490000D01*
X118410000Y-80790000D02*
X115590000Y-80790000D01*
X118410000Y-80790000D02*
X119710000Y-82490000D01*
X119710000Y-82490000D02*
X119710000Y-91210000D01*
X119710000Y-91210000D02*
X114290000Y-91210000D01*
%TO.C,J4*%
X121290000Y-82490000D02*
X121290000Y-91210000D01*
X122590000Y-80790000D02*
X121290000Y-82490000D01*
X125410000Y-80790000D02*
X122590000Y-80790000D01*
X125410000Y-80790000D02*
X126710000Y-82490000D01*
X126710000Y-82490000D02*
X126710000Y-91210000D01*
X126710000Y-91210000D02*
X121290000Y-91210000D01*
%TD*%
%LPC*%
D10*
X114309524Y-95647247D02*
X114309524Y-94647247D01*
X114309524Y-95123437D02*
X114880952Y-95123437D01*
X114880952Y-95647247D02*
X114880952Y-94647247D01*
X115547619Y-94647247D02*
X115738095Y-94647247D01*
X115738095Y-94647247D02*
X115833333Y-94694866D01*
X115833333Y-94694866D02*
X115928571Y-94790104D01*
X115928571Y-94790104D02*
X115976190Y-94980580D01*
X115976190Y-94980580D02*
X115976190Y-95313913D01*
X115976190Y-95313913D02*
X115928571Y-95504389D01*
X115928571Y-95504389D02*
X115833333Y-95599628D01*
X115833333Y-95599628D02*
X115738095Y-95647247D01*
X115738095Y-95647247D02*
X115547619Y-95647247D01*
X115547619Y-95647247D02*
X115452381Y-95599628D01*
X115452381Y-95599628D02*
X115357143Y-95504389D01*
X115357143Y-95504389D02*
X115309524Y-95313913D01*
X115309524Y-95313913D02*
X115309524Y-94980580D01*
X115309524Y-94980580D02*
X115357143Y-94790104D01*
X115357143Y-94790104D02*
X115452381Y-94694866D01*
X115452381Y-94694866D02*
X115547619Y-94647247D01*
X116261905Y-94647247D02*
X116833333Y-94647247D01*
X116547619Y-95647247D02*
X116547619Y-94647247D01*
X114380952Y-96304810D02*
X114285714Y-96257191D01*
X114285714Y-96257191D02*
X114142857Y-96257191D01*
X114142857Y-96257191D02*
X114000000Y-96304810D01*
X114000000Y-96304810D02*
X113904762Y-96400048D01*
X113904762Y-96400048D02*
X113857143Y-96495286D01*
X113857143Y-96495286D02*
X113809524Y-96685762D01*
X113809524Y-96685762D02*
X113809524Y-96828619D01*
X113809524Y-96828619D02*
X113857143Y-97019095D01*
X113857143Y-97019095D02*
X113904762Y-97114333D01*
X113904762Y-97114333D02*
X114000000Y-97209572D01*
X114000000Y-97209572D02*
X114142857Y-97257191D01*
X114142857Y-97257191D02*
X114238095Y-97257191D01*
X114238095Y-97257191D02*
X114380952Y-97209572D01*
X114380952Y-97209572D02*
X114428571Y-97161952D01*
X114428571Y-97161952D02*
X114428571Y-96828619D01*
X114428571Y-96828619D02*
X114238095Y-96828619D01*
X115333333Y-97257191D02*
X114857143Y-97257191D01*
X114857143Y-97257191D02*
X114857143Y-96257191D01*
X115666667Y-96257191D02*
X115666667Y-97066714D01*
X115666667Y-97066714D02*
X115714286Y-97161952D01*
X115714286Y-97161952D02*
X115761905Y-97209572D01*
X115761905Y-97209572D02*
X115857143Y-97257191D01*
X115857143Y-97257191D02*
X116047619Y-97257191D01*
X116047619Y-97257191D02*
X116142857Y-97209572D01*
X116142857Y-97209572D02*
X116190476Y-97161952D01*
X116190476Y-97161952D02*
X116238095Y-97066714D01*
X116238095Y-97066714D02*
X116238095Y-96257191D01*
X116714286Y-96733381D02*
X117047619Y-96733381D01*
X117190476Y-97257191D02*
X116714286Y-97257191D01*
X116714286Y-97257191D02*
X116714286Y-96257191D01*
X116714286Y-96257191D02*
X117190476Y-96257191D01*
D12*
%TO.C,H3*%
X122000000Y-96000000D03*
D13*
X122000000Y-93050000D03*
%TD*%
D14*
%TO.C,J2*%
X110000000Y-83500000D03*
D15*
X110000000Y-88500000D03*
%TD*%
D14*
%TO.C,J1*%
X103000000Y-83500000D03*
D16*
X103000000Y-88500000D03*
%TD*%
D14*
%TO.C,J3*%
X117000000Y-83500000D03*
D15*
X117000000Y-88500000D03*
%TD*%
D12*
%TO.C,H2*%
X106950000Y-96000000D03*
D13*
X106950000Y-93050000D03*
%TD*%
D14*
%TO.C,J4*%
X124000000Y-83500000D03*
D15*
X124000000Y-88500000D03*
%TD*%
%LPD*%
M02*
