%TF.GenerationSoftware,KiCad,Pcbnew,10.0.4*%
%TF.CreationDate,2026-07-12T12:48:27+10:00*%
%TF.ProjectId,hotglue-beetle-screw-switch,686f7467-6c75-4652-9d62-6565746c652d,rev?*%
%TF.SameCoordinates,Original*%
%TF.FileFunction,Copper,L1,Top*%
%TF.FilePolarity,Positive*%
%FSLAX46Y46*%
G04 Gerber Fmt 4.6, Leading zero omitted, Abs format (unit mm)*
G04 Created by KiCad (PCBNEW 10.0.4) date 2026-07-12 12:48:27*
%MOMM*%
%LPD*%
G01*
G04 APERTURE LIST*
G04 Aperture macros list*
%AMRoundRect*
0 Rectangle with rounded corners*
0 $1 Rounding radius*
0 $2 $3 $4 $5 $6 $7 $8 $9 X,Y pos of 4 corners*
0 Add a 4 corners polygon primitive as box body*
4,1,4,$2,$3,$4,$5,$6,$7,$8,$9,$2,$3,0*
0 Add four circle primitives for the rounded corners*
1,1,$1+$1,$2,$3*
1,1,$1+$1,$4,$5*
1,1,$1+$1,$6,$7*
1,1,$1+$1,$8,$9*
0 Add four rect primitives between the rounded corners*
20,1,$1+$1,$2,$3,$4,$5,0*
20,1,$1+$1,$4,$5,$6,$7,0*
20,1,$1+$1,$6,$7,$8,$9,0*
20,1,$1+$1,$8,$9,$2,$3,0*%
G04 Aperture macros list end*
%TA.AperFunction,SMDPad,CuDef*%
%ADD10RoundRect,4.250000X0.000010X-0.000010X0.000010X0.000010X-0.000010X0.000010X-0.000010X-0.000010X0*%
%TD*%
%TA.AperFunction,ComponentPad*%
%ADD11RoundRect,0.760000X-1.140000X1.140000X-1.140000X-1.140000X1.140000X-1.140000X1.140000X1.140000X0*%
%TD*%
%TA.AperFunction,ComponentPad*%
%ADD12C,4.000000*%
%TD*%
%TA.AperFunction,ComponentPad*%
%ADD13C,3.800000*%
%TD*%
%TA.AperFunction,ViaPad*%
%ADD14C,1.000000*%
%TD*%
G04 APERTURE END LIST*
D10*
%TO.P,H2,1,1_1*%
%TO.N,/BATT SWITCH*%
X106000000Y-92000000D03*
%TD*%
%TO.P,H3,1,1_1*%
%TO.N,-BATT*%
X122000000Y-92000000D03*
%TD*%
D11*
%TO.P,J2,1,Pin_1_1*%
%TO.N,-BATT*%
X110000000Y-78500000D03*
D12*
%TO.P,J2,2,Pin_2_2*%
%TO.N,/BATT SWITCH*%
X110000000Y-83500000D03*
%TD*%
D11*
%TO.P,J1,1,Pin_1_1*%
%TO.N,-BATT*%
X103000000Y-78500000D03*
D13*
%TO.P,J1,2,Pin_2_2*%
%TO.N,+BATT*%
X103000000Y-83500000D03*
%TD*%
D11*
%TO.P,J3,1,Pin_1_1*%
%TO.N,-BATT*%
X117000000Y-78500000D03*
D12*
%TO.P,J3,2,Pin_2_2*%
%TO.N,/BATT SWITCH*%
X117000000Y-83500000D03*
%TD*%
D11*
%TO.P,J4,1,Pin_1_1*%
%TO.N,-BATT*%
X124000000Y-78500000D03*
D12*
%TO.P,J4,2,Pin_2_2*%
%TO.N,/BATT SWITCH*%
X124000000Y-83500000D03*
%TD*%
D14*
%TO.N,-BATT*%
X118000000Y-88000000D03*
X118000000Y-96000000D03*
X125000000Y-96000000D03*
X125000000Y-88000000D03*
%TO.N,/BATT SWITCH*%
X112000000Y-91000000D03*
X112000000Y-93000000D03*
%TD*%
%TA.AperFunction,Conductor*%
%TO.N,-BATT*%
G36*
X125201552Y-75514511D02*
G01*
X125495215Y-75667382D01*
X125504555Y-75672775D01*
X125840787Y-75886978D01*
X125863311Y-75901328D01*
X125872172Y-75907532D01*
X126209645Y-76166484D01*
X126217932Y-76173438D01*
X126531542Y-76460808D01*
X126539191Y-76468457D01*
X126826561Y-76782067D01*
X126833515Y-76790354D01*
X127092467Y-77127827D01*
X127098671Y-77136688D01*
X127327216Y-77495430D01*
X127332625Y-77504798D01*
X127485489Y-77798447D01*
X127499500Y-77855704D01*
X127499500Y-94144294D01*
X127485489Y-94201551D01*
X127332625Y-94495201D01*
X127327216Y-94504569D01*
X127098671Y-94863311D01*
X127092467Y-94872172D01*
X126833515Y-95209645D01*
X126826561Y-95217932D01*
X126539191Y-95531542D01*
X126531542Y-95539191D01*
X126217932Y-95826561D01*
X126209645Y-95833515D01*
X125872172Y-96092467D01*
X125863311Y-96098671D01*
X125504569Y-96327216D01*
X125495201Y-96332625D01*
X125201552Y-96485489D01*
X125144295Y-96499500D01*
X115855705Y-96499500D01*
X115798448Y-96485489D01*
X115711034Y-96439984D01*
X115504792Y-96332621D01*
X115495436Y-96327220D01*
X115316059Y-96212943D01*
X115136688Y-96098671D01*
X115127827Y-96092467D01*
X114790354Y-95833515D01*
X114782067Y-95826561D01*
X114468457Y-95539191D01*
X114460808Y-95531542D01*
X114173438Y-95217932D01*
X114166484Y-95209645D01*
X113907532Y-94872172D01*
X113901328Y-94863311D01*
X113886978Y-94840787D01*
X113672775Y-94504555D01*
X113667382Y-94495215D01*
X113470959Y-94117890D01*
X113466390Y-94108092D01*
X113332692Y-93785317D01*
X113325224Y-93715852D01*
X113336765Y-93681585D01*
X113390568Y-93575992D01*
X113463553Y-93351368D01*
X113492361Y-93169483D01*
X113500500Y-93118097D01*
X113500500Y-92881902D01*
X113463553Y-92648631D01*
X113390566Y-92424003D01*
X113283342Y-92213566D01*
X113181130Y-92072883D01*
X113172824Y-92049607D01*
X113160671Y-92028085D01*
X113161289Y-92017276D01*
X113157651Y-92007080D01*
X113163248Y-91983007D01*
X113164660Y-91958329D01*
X113172396Y-91943666D01*
X113173476Y-91939026D01*
X113181123Y-91927125D01*
X113228198Y-91862332D01*
X119899500Y-91862332D01*
X119899500Y-92137667D01*
X119899501Y-92137684D01*
X119935438Y-92410655D01*
X119935439Y-92410660D01*
X119935440Y-92410666D01*
X119935441Y-92410668D01*
X120006704Y-92676630D01*
X120112075Y-92931017D01*
X120112080Y-92931028D01*
X120194861Y-93074407D01*
X120249751Y-93169479D01*
X120249753Y-93169482D01*
X120249754Y-93169483D01*
X120417370Y-93387926D01*
X120417376Y-93387933D01*
X120612066Y-93582623D01*
X120612072Y-93582628D01*
X120830521Y-93750249D01*
X120983778Y-93838732D01*
X121068971Y-93887919D01*
X121068976Y-93887921D01*
X121068979Y-93887923D01*
X121323368Y-93993295D01*
X121589334Y-94064560D01*
X121862326Y-94100500D01*
X121862333Y-94100500D01*
X122137667Y-94100500D01*
X122137674Y-94100500D01*
X122410666Y-94064560D01*
X122676632Y-93993295D01*
X122931021Y-93887923D01*
X123169479Y-93750249D01*
X123387928Y-93582628D01*
X123582628Y-93387928D01*
X123750249Y-93169479D01*
X123887923Y-92931021D01*
X123993295Y-92676632D01*
X124064560Y-92410666D01*
X124100500Y-92137674D01*
X124100500Y-91862326D01*
X124064560Y-91589334D01*
X123993295Y-91323368D01*
X123887923Y-91068979D01*
X123887921Y-91068976D01*
X123887919Y-91068971D01*
X123779917Y-90881908D01*
X123750249Y-90830521D01*
X123681099Y-90740403D01*
X123582629Y-90612073D01*
X123582623Y-90612066D01*
X123387933Y-90417376D01*
X123387926Y-90417370D01*
X123169483Y-90249754D01*
X123169482Y-90249753D01*
X123169479Y-90249751D01*
X123074407Y-90194861D01*
X122931028Y-90112080D01*
X122931017Y-90112075D01*
X122676630Y-90006704D01*
X122543649Y-89971072D01*
X122410666Y-89935440D01*
X122410660Y-89935439D01*
X122410655Y-89935438D01*
X122137684Y-89899501D01*
X122137679Y-89899500D01*
X122137674Y-89899500D01*
X121862326Y-89899500D01*
X121862320Y-89899500D01*
X121862315Y-89899501D01*
X121589344Y-89935438D01*
X121589337Y-89935439D01*
X121589334Y-89935440D01*
X121533125Y-89950500D01*
X121323369Y-90006704D01*
X121068982Y-90112075D01*
X121068971Y-90112080D01*
X120830516Y-90249754D01*
X120612073Y-90417370D01*
X120612066Y-90417376D01*
X120417376Y-90612066D01*
X120417370Y-90612073D01*
X120249754Y-90830516D01*
X120112080Y-91068971D01*
X120112075Y-91068982D01*
X120006704Y-91323369D01*
X119935441Y-91589331D01*
X119935438Y-91589344D01*
X119899501Y-91862315D01*
X119899500Y-91862332D01*
X113228198Y-91862332D01*
X113283343Y-91786433D01*
X113390568Y-91575992D01*
X113463553Y-91351368D01*
X113467988Y-91323368D01*
X113500500Y-91118097D01*
X113500500Y-90881902D01*
X113463553Y-90648631D01*
X113390566Y-90424003D01*
X113336770Y-90318424D01*
X113323874Y-90249755D01*
X113332691Y-90214684D01*
X113466396Y-89891892D01*
X113470954Y-89882118D01*
X113667387Y-89504774D01*
X113672769Y-89495453D01*
X113901334Y-89136678D01*
X113907525Y-89127835D01*
X114166491Y-88790345D01*
X114173429Y-88782076D01*
X114460819Y-88468445D01*
X114468445Y-88460819D01*
X114782076Y-88173429D01*
X114790345Y-88166491D01*
X115127835Y-87907525D01*
X115136678Y-87901334D01*
X115495453Y-87672769D01*
X115504774Y-87667387D01*
X115882118Y-87470954D01*
X115891892Y-87466396D01*
X116284914Y-87303601D01*
X116295046Y-87299913D01*
X116700746Y-87171997D01*
X116711175Y-87169202D01*
X117126491Y-87077128D01*
X117137121Y-87075255D01*
X117558872Y-87019731D01*
X117569605Y-87018791D01*
X117997297Y-87000117D01*
X118002706Y-87000000D01*
X126000000Y-87000000D01*
X126000000Y-85794710D01*
X126019685Y-85727671D01*
X126036319Y-85707029D01*
X126077205Y-85666143D01*
X126240825Y-85502523D01*
X126450946Y-85239039D01*
X126630246Y-84953686D01*
X126776469Y-84650051D01*
X126887776Y-84331954D01*
X126962767Y-84003394D01*
X127000500Y-83668504D01*
X127000500Y-83331496D01*
X126962767Y-82996606D01*
X126887776Y-82668046D01*
X126776469Y-82349949D01*
X126630246Y-82046314D01*
X126450946Y-81760961D01*
X126240825Y-81497477D01*
X126036319Y-81292971D01*
X126002834Y-81231648D01*
X126000000Y-81205290D01*
X126000000Y-80500000D01*
X124179905Y-80500000D01*
X124171985Y-80499555D01*
X124171978Y-80499695D01*
X124168505Y-80499500D01*
X124168504Y-80499500D01*
X123831496Y-80499500D01*
X123831495Y-80499500D01*
X123828022Y-80499695D01*
X123828014Y-80499555D01*
X123820095Y-80500000D01*
X117179905Y-80500000D01*
X117171985Y-80499555D01*
X117171978Y-80499695D01*
X117168505Y-80499500D01*
X117168504Y-80499500D01*
X116831496Y-80499500D01*
X116831495Y-80499500D01*
X116828022Y-80499695D01*
X116828014Y-80499555D01*
X116820095Y-80500000D01*
X110179905Y-80500000D01*
X110171985Y-80499555D01*
X110171978Y-80499695D01*
X110168505Y-80499500D01*
X110168504Y-80499500D01*
X109831496Y-80499500D01*
X109831495Y-80499500D01*
X109828022Y-80499695D01*
X109828014Y-80499555D01*
X109820095Y-80500000D01*
X102753751Y-80500000D01*
X102746264Y-80499774D01*
X102426009Y-80480401D01*
X102411145Y-80478596D01*
X102099256Y-80421441D01*
X102084717Y-80417857D01*
X101782004Y-80323528D01*
X101768003Y-80318219D01*
X101478850Y-80188082D01*
X101465591Y-80181123D01*
X101194240Y-80017086D01*
X101181917Y-80008580D01*
X101170965Y-80000000D01*
X100932314Y-79813028D01*
X100921106Y-79803098D01*
X100696901Y-79578893D01*
X100686971Y-79567685D01*
X100526889Y-79363355D01*
X100501040Y-79298443D01*
X100500500Y-79286882D01*
X100500500Y-76213117D01*
X100520185Y-76146078D01*
X100526889Y-76136644D01*
X100686978Y-75932305D01*
X100696893Y-75921114D01*
X100921114Y-75696893D01*
X100932305Y-75686978D01*
X101136645Y-75526889D01*
X101201557Y-75501040D01*
X101213118Y-75500500D01*
X125144295Y-75500500D01*
X125201552Y-75514511D01*
G37*
%TD.AperFunction*%
%TD*%
%TA.AperFunction,Conductor*%
%TO.N,/BATT SWITCH*%
G36*
X110163835Y-81505049D02*
G01*
X110179900Y-81505500D01*
X116820095Y-81505500D01*
X116820098Y-81505500D01*
X116829900Y-81505224D01*
X116836158Y-81505048D01*
X116839637Y-81505000D01*
X117160355Y-81505000D01*
X117163835Y-81505049D01*
X117179900Y-81505500D01*
X123820095Y-81505500D01*
X123820098Y-81505500D01*
X123829900Y-81505224D01*
X123836158Y-81505048D01*
X123839637Y-81505000D01*
X124160355Y-81505000D01*
X124163835Y-81505049D01*
X124179900Y-81505500D01*
X124179905Y-81505500D01*
X124950411Y-81505500D01*
X125017450Y-81525185D01*
X125063205Y-81577989D01*
X125064697Y-81581388D01*
X125120327Y-81713532D01*
X125153815Y-81774861D01*
X125196749Y-81846282D01*
X125196757Y-81846293D01*
X125325325Y-82003969D01*
X125484975Y-82163619D01*
X125494241Y-82173987D01*
X125625263Y-82338284D01*
X125633310Y-82349625D01*
X125745118Y-82527565D01*
X125751844Y-82539735D01*
X125843019Y-82729061D01*
X125848341Y-82741909D01*
X125917752Y-82940278D01*
X125921601Y-82953639D01*
X125968360Y-83158504D01*
X125970689Y-83172213D01*
X125994220Y-83381043D01*
X125995000Y-83394927D01*
X125995000Y-83605071D01*
X125994220Y-83618955D01*
X125970689Y-83827785D01*
X125968360Y-83841494D01*
X125921601Y-84046359D01*
X125917752Y-84059720D01*
X125848341Y-84258089D01*
X125843019Y-84270937D01*
X125751844Y-84460263D01*
X125745118Y-84472433D01*
X125633310Y-84650373D01*
X125625263Y-84661714D01*
X125494244Y-84826007D01*
X125484979Y-84836375D01*
X125325321Y-84996034D01*
X125253383Y-85076122D01*
X125236760Y-85096751D01*
X125236751Y-85096763D01*
X125131694Y-85255969D01*
X125131693Y-85255971D01*
X125054914Y-85444388D01*
X125035233Y-85511416D01*
X125015082Y-85592307D01*
X124994500Y-85794708D01*
X124994500Y-85870500D01*
X124974815Y-85937539D01*
X124922011Y-85983294D01*
X124870500Y-85994500D01*
X118002706Y-85994500D01*
X117998750Y-85994542D01*
X117980974Y-85994734D01*
X117977348Y-85994813D01*
X117975553Y-85994852D01*
X117974096Y-85994899D01*
X117953443Y-85995573D01*
X117525741Y-86014247D01*
X117481872Y-86017125D01*
X117471138Y-86018065D01*
X117427637Y-86022832D01*
X117005874Y-86078357D01*
X116962645Y-86085007D01*
X116952036Y-86086877D01*
X116952017Y-86086880D01*
X116952010Y-86086882D01*
X116908859Y-86095463D01*
X116493543Y-86187537D01*
X116493527Y-86187541D01*
X116450865Y-86197981D01*
X116440459Y-86200769D01*
X116398396Y-86213031D01*
X115992711Y-86340942D01*
X115951119Y-86355061D01*
X115940988Y-86358749D01*
X115900116Y-86374643D01*
X115507115Y-86537430D01*
X115466932Y-86555112D01*
X115457126Y-86559685D01*
X115417824Y-86579067D01*
X115040496Y-86775491D01*
X115001975Y-86796625D01*
X114992683Y-86801991D01*
X114955169Y-86824755D01*
X114596442Y-87053290D01*
X114560021Y-87077625D01*
X114551134Y-87083846D01*
X114515753Y-87109787D01*
X114178213Y-87368790D01*
X114144052Y-87396208D01*
X114135789Y-87403140D01*
X114102750Y-87432114D01*
X113789135Y-87719489D01*
X113757455Y-87749816D01*
X113749816Y-87757455D01*
X113719489Y-87789135D01*
X113432114Y-88102750D01*
X113403140Y-88135789D01*
X113396208Y-88144052D01*
X113368790Y-88178213D01*
X113109787Y-88515753D01*
X113083846Y-88551134D01*
X113077625Y-88560021D01*
X113053290Y-88596442D01*
X112824755Y-88955169D01*
X112801991Y-88992683D01*
X112796625Y-89001975D01*
X112775491Y-89040496D01*
X112579067Y-89417824D01*
X112559685Y-89457126D01*
X112555110Y-89466937D01*
X112537431Y-89507109D01*
X112403731Y-89829889D01*
X112357534Y-89969529D01*
X112348724Y-90004571D01*
X112342550Y-90030590D01*
X112342548Y-90030602D01*
X112318520Y-90232612D01*
X112318520Y-90232616D01*
X112334132Y-90417376D01*
X112335651Y-90435351D01*
X112335652Y-90435358D01*
X112348544Y-90504005D01*
X112367313Y-90585226D01*
X112440865Y-90774914D01*
X112440865Y-90774915D01*
X112454304Y-90801291D01*
X112461750Y-90819268D01*
X112479796Y-90874810D01*
X112484338Y-90893726D01*
X112493473Y-90951392D01*
X112495000Y-90970793D01*
X112495000Y-91029203D01*
X112493473Y-91048604D01*
X112484338Y-91106271D01*
X112479796Y-91125188D01*
X112461749Y-91180731D01*
X112454302Y-91198708D01*
X112427790Y-91250740D01*
X112417637Y-91267312D01*
X112414745Y-91271294D01*
X112414732Y-91271312D01*
X112367665Y-91336094D01*
X112335199Y-91383576D01*
X112327557Y-91395469D01*
X112327552Y-91395478D01*
X112308643Y-91429986D01*
X112308644Y-91429987D01*
X112284001Y-91474960D01*
X112283077Y-91474473D01*
X112275341Y-91489136D01*
X112264808Y-91509669D01*
X112264415Y-91510705D01*
X112261572Y-91515896D01*
X112260090Y-91518601D01*
X112260082Y-91518619D01*
X112247628Y-91554974D01*
X112246321Y-91558605D01*
X112192913Y-91699991D01*
X112192911Y-91699995D01*
X112185198Y-91748250D01*
X112183532Y-91756755D01*
X112178275Y-91779364D01*
X112156455Y-91928226D01*
X112154123Y-91944134D01*
X112160085Y-92098139D01*
X112160119Y-92099028D01*
X112161103Y-92137143D01*
X112161704Y-92139963D01*
X112161993Y-92147422D01*
X112161994Y-92147428D01*
X112171232Y-92184957D01*
X112172101Y-92188743D01*
X112203517Y-92336123D01*
X112226002Y-92387478D01*
X112225814Y-92387546D01*
X112234120Y-92410822D01*
X112265344Y-92488052D01*
X112284313Y-92520653D01*
X112285118Y-92522491D01*
X112285953Y-92523970D01*
X112285958Y-92523981D01*
X112317163Y-92579241D01*
X112323406Y-92587839D01*
X112367657Y-92663891D01*
X112367660Y-92663895D01*
X112367663Y-92663900D01*
X112417629Y-92732672D01*
X112427791Y-92749255D01*
X112454304Y-92801290D01*
X112461750Y-92819268D01*
X112479796Y-92874810D01*
X112484338Y-92893726D01*
X112490248Y-92931037D01*
X112493473Y-92951392D01*
X112495000Y-92970793D01*
X112495000Y-93029203D01*
X112493473Y-93048604D01*
X112484338Y-93106271D01*
X112479796Y-93125187D01*
X112461751Y-93180726D01*
X112454306Y-93198702D01*
X112440865Y-93225081D01*
X112383854Y-93360663D01*
X112372321Y-93394905D01*
X112364119Y-93420373D01*
X112324314Y-93619881D01*
X112325484Y-93823323D01*
X112332954Y-93892810D01*
X112345288Y-93975226D01*
X112345288Y-93975227D01*
X112403731Y-94170107D01*
X112403736Y-94170119D01*
X112537431Y-94492887D01*
X112555099Y-94533037D01*
X112559675Y-94542850D01*
X112579072Y-94582183D01*
X112775492Y-94959502D01*
X112775493Y-94959503D01*
X112796616Y-94998003D01*
X112802009Y-95007343D01*
X112802021Y-95007363D01*
X112824757Y-95044831D01*
X113053299Y-95403569D01*
X113077616Y-95439964D01*
X113077647Y-95440008D01*
X113083851Y-95448869D01*
X113106599Y-95479895D01*
X113109820Y-95484288D01*
X113368770Y-95821758D01*
X113376803Y-95831767D01*
X113396244Y-95855989D01*
X113401627Y-95862404D01*
X113403197Y-95864275D01*
X113432116Y-95897251D01*
X113719456Y-96210827D01*
X113719471Y-96210843D01*
X113719475Y-96210847D01*
X113749812Y-96242538D01*
X113757461Y-96250187D01*
X113789152Y-96280524D01*
X113789169Y-96280540D01*
X113793029Y-96284077D01*
X113829158Y-96343880D01*
X113827219Y-96413723D01*
X113787828Y-96471430D01*
X113723491Y-96498680D01*
X113709257Y-96499500D01*
X102870655Y-96499500D01*
X102841182Y-96495946D01*
X102812968Y-96489042D01*
X102785187Y-96478586D01*
X102683008Y-96425395D01*
X102507200Y-96333874D01*
X102502458Y-96331273D01*
X102497771Y-96328567D01*
X102493145Y-96325760D01*
X102422139Y-96280524D01*
X102316059Y-96212943D01*
X102312738Y-96210827D01*
X102138962Y-96100119D01*
X102134468Y-96097116D01*
X102132231Y-96095550D01*
X102130030Y-96094009D01*
X102125676Y-96090816D01*
X101873398Y-95897237D01*
X101792485Y-95835150D01*
X101788291Y-95831784D01*
X101784121Y-95828284D01*
X101780073Y-95824734D01*
X101470452Y-95541019D01*
X101466544Y-95537278D01*
X101462720Y-95533454D01*
X101458979Y-95529546D01*
X101175264Y-95219925D01*
X101171716Y-95215881D01*
X101168210Y-95211702D01*
X101164853Y-95207519D01*
X100909182Y-94874322D01*
X100905979Y-94869953D01*
X100902881Y-94865528D01*
X100899880Y-94861036D01*
X100807900Y-94716657D01*
X100674220Y-94506822D01*
X100671422Y-94502213D01*
X100668729Y-94497550D01*
X100666146Y-94492843D01*
X100524674Y-94221075D01*
X100524396Y-94220540D01*
X100521404Y-94214791D01*
X100521402Y-94214781D01*
X100510956Y-94187025D01*
X100504053Y-94158814D01*
X100500500Y-94129342D01*
X100500500Y-91862337D01*
X103899500Y-91862337D01*
X103899500Y-92137661D01*
X103899501Y-92137690D01*
X103935249Y-92409222D01*
X103935438Y-92410655D01*
X103935439Y-92410660D01*
X103935440Y-92410666D01*
X103935441Y-92410668D01*
X103936740Y-92415516D01*
X103936749Y-92415554D01*
X103971170Y-92544013D01*
X104006704Y-92676630D01*
X104006705Y-92676632D01*
X104006707Y-92676639D01*
X104112076Y-92931020D01*
X104112085Y-92931037D01*
X104135038Y-92970793D01*
X104194861Y-93074407D01*
X104249751Y-93169479D01*
X104249753Y-93169482D01*
X104249754Y-93169483D01*
X104417370Y-93387926D01*
X104417376Y-93387933D01*
X104417384Y-93387941D01*
X104612052Y-93582610D01*
X104612066Y-93582623D01*
X104612072Y-93582628D01*
X104830521Y-93750249D01*
X104983778Y-93838732D01*
X105030979Y-93865984D01*
X105065531Y-93885933D01*
X105067269Y-93887013D01*
X105068693Y-93887803D01*
X105068966Y-93887916D01*
X105068971Y-93887919D01*
X105068976Y-93887921D01*
X105068979Y-93887923D01*
X105323368Y-93993295D01*
X105589334Y-94064560D01*
X105862326Y-94100500D01*
X105862333Y-94100500D01*
X106137667Y-94100500D01*
X106137674Y-94100500D01*
X106410666Y-94064560D01*
X106676632Y-93993295D01*
X106931021Y-93887923D01*
X107169479Y-93750249D01*
X107387928Y-93582628D01*
X107582628Y-93387928D01*
X107750249Y-93169479D01*
X107887923Y-92931021D01*
X107993295Y-92676632D01*
X108064560Y-92410666D01*
X108100500Y-92137674D01*
X108100500Y-91862326D01*
X108064560Y-91589334D01*
X107993295Y-91323368D01*
X107887923Y-91068979D01*
X107887921Y-91068976D01*
X107887919Y-91068971D01*
X107887916Y-91068966D01*
X107887803Y-91068693D01*
X107887013Y-91067269D01*
X107885933Y-91065531D01*
X107838733Y-90983779D01*
X107838731Y-90983777D01*
X107781176Y-90884089D01*
X107750249Y-90830521D01*
X107603886Y-90639776D01*
X107582629Y-90612073D01*
X107582623Y-90612066D01*
X107387933Y-90417376D01*
X107387926Y-90417370D01*
X107169483Y-90249754D01*
X107169482Y-90249753D01*
X107169479Y-90249751D01*
X107074407Y-90194861D01*
X107073782Y-90194500D01*
X107073753Y-90194483D01*
X106931037Y-90112085D01*
X106931020Y-90112076D01*
X106676630Y-90006704D01*
X106543649Y-89971072D01*
X106543648Y-89971071D01*
X106410667Y-89935440D01*
X106410663Y-89935439D01*
X106410657Y-89935438D01*
X106141774Y-89900039D01*
X106139758Y-89899705D01*
X106137684Y-89899500D01*
X106137679Y-89899500D01*
X106137674Y-89899500D01*
X105862326Y-89899500D01*
X105862320Y-89899500D01*
X105862315Y-89899500D01*
X105860238Y-89899705D01*
X105858224Y-89900039D01*
X105589365Y-89935435D01*
X105589333Y-89935439D01*
X105587524Y-89935866D01*
X105585735Y-89936404D01*
X105533126Y-89950499D01*
X105533125Y-89950500D01*
X105393287Y-89987969D01*
X105323368Y-90006704D01*
X105068978Y-90112076D01*
X105068970Y-90112080D01*
X104830516Y-90249754D01*
X104830507Y-90249760D01*
X104612072Y-90417371D01*
X104612065Y-90417377D01*
X104612057Y-90417384D01*
X104417384Y-90612057D01*
X104417377Y-90612065D01*
X104417376Y-90612066D01*
X104417370Y-90612073D01*
X104417360Y-90612086D01*
X104249760Y-90830507D01*
X104249754Y-90830516D01*
X104112080Y-91068970D01*
X104112076Y-91068978D01*
X104006707Y-91323359D01*
X104006704Y-91323369D01*
X103935444Y-91589315D01*
X103935439Y-91589340D01*
X103935436Y-91589353D01*
X103899501Y-91862308D01*
X103899500Y-91862337D01*
X100500500Y-91862337D01*
X100500500Y-87903929D01*
X100503186Y-87878261D01*
X100504175Y-87873582D01*
X100506305Y-87866331D01*
X100506470Y-87862739D01*
X100508561Y-87852857D01*
X100520511Y-87830671D01*
X100528693Y-87806845D01*
X100648498Y-87637996D01*
X100652635Y-87632499D01*
X100656978Y-87627052D01*
X100661421Y-87621792D01*
X100871754Y-87386428D01*
X100876499Y-87381410D01*
X100881410Y-87376499D01*
X100886428Y-87371754D01*
X101121792Y-87161421D01*
X101127054Y-87156977D01*
X101132522Y-87152617D01*
X101138007Y-87148490D01*
X101395438Y-86965833D01*
X101401131Y-86962029D01*
X101407062Y-86958302D01*
X101412990Y-86954804D01*
X101689246Y-86802122D01*
X101695382Y-86798952D01*
X101701673Y-86795923D01*
X101707969Y-86793106D01*
X101999561Y-86672327D01*
X102005978Y-86669877D01*
X102012573Y-86667569D01*
X102019166Y-86665467D01*
X102322429Y-86578098D01*
X102329145Y-86576367D01*
X102335909Y-86574823D01*
X102342721Y-86573467D01*
X102653819Y-86520610D01*
X102660685Y-86519640D01*
X102667615Y-86518859D01*
X102674501Y-86518279D01*
X102959283Y-86502286D01*
X102994801Y-86500291D01*
X102998276Y-86500146D01*
X103001738Y-86500049D01*
X103005211Y-86500000D01*
X106000000Y-86500000D01*
X106000000Y-84006096D01*
X106000066Y-84002056D01*
X106000198Y-83998007D01*
X106000398Y-83993937D01*
X106005340Y-83918524D01*
X106020591Y-83685826D01*
X106021385Y-83677765D01*
X106022447Y-83669703D01*
X106023759Y-83661759D01*
X106082806Y-83364907D01*
X106084644Y-83357022D01*
X106086753Y-83349150D01*
X106089095Y-83341433D01*
X106117346Y-83258206D01*
X106186390Y-83054809D01*
X106189242Y-83047233D01*
X106192335Y-83039765D01*
X106195680Y-83032381D01*
X106329558Y-82760903D01*
X106333351Y-82753805D01*
X106337438Y-82746726D01*
X106341684Y-82739899D01*
X106509872Y-82488188D01*
X106514557Y-82481650D01*
X106519518Y-82475185D01*
X106524618Y-82468970D01*
X106724220Y-82241368D01*
X106729737Y-82235478D01*
X106735478Y-82229737D01*
X106741368Y-82224220D01*
X106968970Y-82024618D01*
X106975185Y-82019518D01*
X106981650Y-82014557D01*
X106988188Y-82009872D01*
X107239899Y-81841684D01*
X107246726Y-81837438D01*
X107253805Y-81833351D01*
X107260903Y-81829558D01*
X107532381Y-81695680D01*
X107539753Y-81692340D01*
X107547245Y-81689237D01*
X107554809Y-81686390D01*
X107758206Y-81617346D01*
X107841433Y-81589095D01*
X107849153Y-81586753D01*
X107857035Y-81584641D01*
X107864898Y-81582808D01*
X107868250Y-81582142D01*
X108161759Y-81523759D01*
X108169703Y-81522447D01*
X108177765Y-81521385D01*
X108185816Y-81520592D01*
X108370252Y-81508503D01*
X108412042Y-81505765D01*
X108420151Y-81505500D01*
X109820098Y-81505500D01*
X109829900Y-81505224D01*
X109836158Y-81505048D01*
X109839637Y-81505000D01*
X110160355Y-81505000D01*
X110163835Y-81505049D01*
G37*
%TD.AperFunction*%
%TD*%
M02*
